<?xml version="1.0" encoding="utf-8"?>
<!-- Generator: Adobe Illustrator 26.3.1, SVG Export Plug-In . SVG Version: 6.00 Build 0)  -->
<svg version="1.1" id="Capa_1" xmlns="http://www.w3.org/2000/svg" xmlns:xlink="http://www.w3.org/1999/xlink" x="0px" y="0px"
	 viewBox="0 0 203.4 201.8" style="enable-background:new 0 0 203.4 201.8;" xml:space="preserve">
<style type="text/css">
	.st0{fill:#8A7E70;}
</style>
<g>
	<path class="st0" d="M170.7,87.5l1.5,0.9c0.7,0.4,1.5,0.8,2.3,1.2l3.6,1.8c1.6,0.8,2.7,1.7,3.6,2.1l2.7,1.4l1.7,0.9
		c1.4,0.7,2.9,1.4,4.5,1.5l0.6,0.8l-0.1,1.9c0,0.7-0.4,1.3-0.9,1.7c-1.3,1.1-1.5,1.1-3.5,1.4l-1.8,0.3c1.7,2.3,2.7,3.4,4,6
		c1.2,2.3,2.3,5.4,2.6,8l0.2,1.8c0.2,1.8,0.4,3.5,0.2,5.3l-0.3,2.8c-0.1,0.9-0.3,1.7-0.5,2.6l-0.7,3.5c-0.1,0.4-0.4,1-0.5,1.5
		c-0.6,1.6-1.8,2.8-2.9,4.1c-0.1,1-0.1,2.2-0.3,3.2l-0.6,3.6c-0.3,1.9-2.1,4.4-3.3,6l-2.3,2.9c-0.3,0.4-0.8,1-1.3,1.3l-4.6,3.8
		c-1.1,0.9-2.4,1.5-3.6,2.2c-2.3,1.2-4.6,2.1-7.2,2.5l-2.5,0.3c-2.2,0.3-3.3,0-5.7,0c-0.6,0-1.1,0-1.6-0.4c-0.3-0.2-1-0.2-1.3-0.4
		c-2.4-1.1-2.8-1.1-4.5-2.9c-1.7-1.6-2.4-3.8-2.7-6.1c-0.3-2.4,0.7-2.5,0.4-3.9c-0.4,0.6-0.7,1.1-1.1,1.7l-1.4,2.4l-1.8,3.2
		l-1.6,2.6L139,163l-1.5,2.3l-2.7,4l-1.2,1.9l-1.7-0.9c-0.3-0.2-0.9-0.2-1.2-0.1c-1.6,2.6-4,4.6-6.4,6.4c-1.5,1.1-3,1.9-4.7,2.5
		c-0.6,0.2-1.3,0.6-1.9,0.9c-0.9,0.4-1.7,0.8-2.6,1.1l-1.7,0.7l-2.4,1c-0.8,0.3-1.7,0.6-2.4,1.1c-1.4,1-2.9,2-4,3.4
		c-1.3,1.6-1.5,4.3-2.8,3.4l-0.6,0.1c-0.1-0.6-0.3-1-0.6-1.5c-0.6-0.8-0.9-2-1.5-2.7c-1.7-1.9-4-3.2-6.4-4.2l-2.1-0.9
		c-1.2-0.6-2.5-1-3.8-1.4c-3.4-1.1-6.2-2.3-8.8-4.8c-2.4-2.4-3.4-3.6-5.3-6.5l-1.9,0.9c-0.4,0.2-1.4,0.5-1.7,0.2
		c-0.3-0.4-0.7-0.9-1-1.3l-2.3-3.5l-1.2-1.9l-2.8-4.5l-2.9-4.4c0-0.1-0.3-0.2-0.3-0.2c0.1,0.9-0.1,1.7-0.2,2.6
		c-0.2,1.2-0.6,2.2-1.3,3.2l-0.9,1.4c-1.5,2.3-4.7,4.5-7.3,5.1l-2.5,0.5c-0.6,0.1-1.2,0.2-1.8,0.2c-3.4,0.2-2.6,0.2-6-0.2
		c-1.1-0.1-2.1-0.4-3.2-0.7l-2.3-0.6c-0.4-0.1-0.9-0.4-1.3-0.6l-3.5-1.7c-0.8-0.4-1.5-0.9-2.2-1.4c-1.6-1.2-2.9-2.6-4.2-4.2
		l-1.4-1.6c-0.8-0.9-1.2-2-1.7-3.1l-0.9-2c-0.3-0.7-0.9-3.4-0.8-4.1c0.2-0.7,0.1-0.8-0.3-1.4c-1.8-2.5-3.7-6.6-4.2-9.6l-0.4-2.8
		c-0.1-0.4-0.2-0.9-0.2-1.3l0-3c0-1.3,0-2.5,0-3.7c0.1-1.9,0-3.7,0.4-5.5l0.5-2.3c0.2-0.9,0.6-1.8,0.9-2.7c0.9-2.1,0-0.6,1.3-3.2
		l0.6-1.3c0.2-0.5,0.5-1.2,0.8-1.6l1-1.6c-2.2-0.1-3.3-0.6-4.8-1.7c-0.8-0.6-1.3-1.3-1.6-2.3c-0.1-0.3-0.2-0.9,0-1l2,0
		c0.9,0,1.7-0.3,2.4-0.9c0.7-0.7,1.3-1.3,1.9-2l2-2.3l3-3.3l1.7-1.8c0.9-0.9,3.2-2.6,4.3-3.2l3.1-1.7c1.5-0.8,2.9-1.5,4.5-1.9l3.2-1
		c0.6-0.2,1.2-0.3,1.7-0.5c1.4-0.5,2.9-0.9,4.4-1l2.6-0.3l-4.1-0.7c-2.1-0.4-4.1-0.4-6.2-0.6c-1.3-0.1-4.2,0.6-5.6,1
		c-0.9,0.3-1.9,0.7-2.5,1.4c-0.5,0.7,0.6,1.9,0.6,2.4c0.1,1.4-2.2,2.2-3.6,1.9c-1-0.2-1.9-0.7-2.6-1.5c-1.3-1.5-0.7-2.1-0.8-4
		c-0.6-0.4-1.1-0.9-1.5-1.4c-0.3-0.4-0.3-1.1,0.2-1.4c1.4-0.7,2.1-1.9,2.2-3.5c0-0.1-0.1-0.2-0.2-0.3c-1.2,0.2-3.3,1.8-4.1,2.6
		c-1.3,1.3-1.5,3.2-0.6,4.8c0.4,0.7,0.9,1.4,1.2,2.1c0.3,0.7-0.8,1.2-1.4,1.1c-1.4-0.3-3.2-0.7-4-1.7c-1.4-1.6-2.2-3.4-2.3-5.5
		c-0.2-3.2,0.7-5.9,3.6-7.5c0.5-0.3,1.2-0.4,1.7-0.6c-0.6-1.3-0.9-2.6-0.3-4c0.2-0.5,1-0.2,1.4,0c1.8,1,3.3,0.4,4.9,0.1l1.7-0.4
		l0.9-0.2c0,0,0-0.1,0-0.2c-0.6-0.7-1.4-1.2-1.9-1.9c-1.6-2.4-1.6-2.3-2-4.8l-0.3-1.7c-0.2-1-0.4-1.9-0.7-2.9
		c-0.8-2.2-1.8-1.8-2.8-3c1.1-2,3.8-2.7,5.9-1.6c0.5,0.3,1.4,1.3,1.6,0.6c0.8-2.7,1.4-1.9,2.2-4.8l0.5-1.9c0.2-0.8,0.3-1.9-0.2-2.6
		c-0.2-0.1-0.8,0.1-0.9,0.3c-0.5,0.7,0.1,1.7,0.1,2.5c0,0.8-1,2.1-1.7,2.5c-2.1,1.2-5-0.1-5.7-2.4c-0.8-2.6-0.2-5.4,1.9-7.2
		c2.3-1.9,2.7-2,5.3-2c1.4,0,2.9,0.7,4,1.5c0.7,0.5,1.5,1,2,1.7c1,1.3,1.7,4.6,1.5,6c-0.1,0.7-0.3,1.6-0.6,2.3l-0.7,1.7l-0.9,2
		c0.2,0.4,0.3,0.4,0.3,0.1c0.7-1.3,1.3-2.5,2.1-3.6c1.7-2.4,1.9-1.6,3.4-4.7c0.6-1.3,0.3-2,0.8-2.1c0.2,0,0.4,0,0.7,0.1
		c1.6,0.6,2.8,2,3.1,3.6c1.8-0.3,4.6,1.2,5.6,2.3c0.8,0.9,1.5,2.2,1.4,3.4l-0.2,1.9c-0.1,0.8-0.4,2.5-1.3,3l0.5,0.5
		c1.3,1.4,0.9,4.2-0.2,4.6c-1,0.4-1.1-0.9-2.5-0.2c-0.4,0.9-0.1,2.1,0.6,2.8c0.3,0.3,0.7,0.8,1.1,1c3.5,2.1,8,2.7,12,2.1l2.9-0.4
		l8.6-1.4c1.7-0.3,3.4-0.3,5.1,0.1c0.9,0.2,1.6,0.9,2.5,1.4l2.5-0.4c1.7-0.3,3.3,0.4,4.5,1.5c0.2,0.2,0.9,0.6,1,0.9
		c0.3,0.8,1.5,3.8,0.4,4.1l-1.9-0.8c-2,0.6-1.5,4.6-1.1,6.2c0.3,1.4,1.2,2.6,2.2,3.5l-0.5-2.1c-0.4-1.5-0.2-2.9,0.4-4.2
		c0.7-1.3,1.7-2.2,3.1-2.8c0.5-0.2,2.2-1.1,2.3-1.7c0-0.2-0.4-0.7-0.6-0.6l-0.9,0.4c0-0.5,0-0.8,0.2-1.3l-1.5-0.8
		c-0.5-0.3-1.2-0.8-1.6-1.2c-1.6-1.9-0.8-3-3.2-3.6c-1.1-0.3-3.8-2.3-4.8-3.2l-3.4-2.7l-2.4,0.4l-0.3,0.9c-0.1,0.2-1.6,0.8-2.8-0.2
		c-0.9-0.7-1.9-0.8-1.9-1.8c0-1.2,1-0.9,1.5-1.7c0.5-0.9,1.6-1.2,2.4-0.5l0.5,1l1.3,0l0.1-0.3c-1.8-2.4-1.9-2.6-2.3-5.7
		c-0.5-0.3-1.8-0.4-2.3-0.1c-1,0.9-2.2,1.5-3.4,0.5c-0.3-0.3-0.7-0.5-1.1-0.8c-0.4-0.3-0.4-1.3-0.3-1.7l0.8-0.5
		c0.5-0.9,1.4-1.5,2.5-1.4c0.7,0.1,1.3,0.8,1.7,1.4l1.7-0.1c0.3,0,0.7-0.3,0.8-0.6c0.6-2,1.6-3.6,2.9-5.3c-1.9-0.7-1.2,0.3-2.6,0.9
		c-0.6,0.3-1.5,0.3-1.9-0.2c-1-1.1-2-0.6-2-1.5c-0.1-1.1,1.1-1,1.5-1.6c0.4-0.6,0.9-1.3,1.7-1.1c0.7,0.1,1.4,0.9,2,1.3
		c4.6,0.4,3.7-0.4,4.7-1l4.2-2.7l0-0.6L82.7,33c-0.3,0.4-0.6,0.9-1,1.1c-0.9,0.5-1.7,0-2.1-0.6c-0.4-1-1.6-0.1-1.7-1.6
		c0-0.7,0.3-1,0.9-1.2l0.8-1.1c0.3-0.4,1.3-0.5,1.8-0.2c0.5,0.2,0.9,0.7,1.3,1.3c1.1,0.1,2.4,0.1,3.5-0.1l1.8-2.1
		c0.3-0.3,0.6-0.8,0.8-1.3c-1.8-0.7-0.7,0.4-2.6,1.1c-0.9,0.3-1.8-0.2-2-0.9c-0.3-0.7-1.1-0.6-1.1-1.6c0-0.4,0.4-0.7,0.8-1
		c0.2-0.2,0.5-0.6,0.7-1c0.3-0.4,1.3-0.6,1.8-0.5c0.8,0.3,1.3,0.9,1.9,1.5c0.5,0,1.1-0.1,1.7-0.2c0.4-1.4,0.6-2.7,0.6-4.1
		c-0.5-0.2-1.2-0.3-1.7-0.3c-0.4,0.8-0.8,1.4-1.7,1.5c-1.6,0.2-1.2-0.7-2.3-1.5c-0.7-0.5-0.3-1.4,0.2-1.8c0.2-0.2,0.3-0.8,0.5-1.1
		c0.4-0.5,1.3-0.7,2-0.5c0.5,0.1,1.3,0.7,1.5,1.3c0,0.1,0,0.4,0.1,0.4l0.5,0.1c0.1,0,0.1-0.5,0-0.6l-1.6-1.8
		c-0.8-0.9-1.7-1.4-2.8-1.9c-3.3-1.3-5.5-1-7.6,1.9c-1.4,2-1.8,4-1.6,6.4c0.1,1.4,0.1,2.9,0.3,4.2c0.1,2.7-5.7-0.6-6.1-0.9l-0.9-0.7
		c0,0-0.2-0.1-0.3-0.1c-0.1,0,0,0.3,0.1,0.4c0.9,1.4-0.6,2.8-1,2.9c-0.4,0.1-1.4-0.3-1.9-0.2c-0.1,0-1.8,0.5-2.6-0.7
		c-0.5-0.7,0.4-1.4,0.1-1.9c-0.5-0.7-0.3-1.6,0.5-2.1c2-1.2,2,0.6,3.1-0.2c-1.1-1.4-1.6-1.5-2.7-3.3c-0.5-0.8-1.9-3.3-1.3-4
		c0.6-0.8,2.4-0.1,4.9-0.8c4.1-1.3,5.7-2.5,10.3-3.7c2.6-0.7,4.2-0.6,6.8,0c0.7,0.2,1.6,0.2,2.2,0.6l2.7,1.7
		c1.1,0.7,3.9,3.3,4.4,4.7l3.1,0l0.4-1.3c0.1-0.4,1.1-0.6,1.6-0.4c0.4,0.1,0.8,0.7,1.2,1.1c0.3,0.2,0.8,0.4,0.9,0.7
		c0.1,0.3,0,1-0.2,1.2l-1.1,1c-0.6,0.5-1.6,1-2.2,0.6c-0.2-0.1-0.4-0.6-0.5-0.9c-0.8-0.1-1.9,0-2.6,0.3l0.4,4.4l2.6,0
		c0.8,0,0.4-1.1,1.2-1.4c0.3-0.1,1.2-0.2,1.4,0c0.9,0.7,2.4,2.5,1.1,3.6l-1.1,0.9c-0.5,0.4-1.8,0.2-2.2-0.3
		c-0.3-0.4-0.6-0.6-1.1-0.6c-0.6,0-1.8-0.2-2.2,0.2c-0.6,0.5-0.7,1.5-1,2.1l-0.8,1.3c0.7,0,1.4,0,2-0.1l0.4-0.8
		c0.5-0.5,1.6-0.7,2.2-0.2l0.7,1.1c0.4,0.3,0.9,0.8,0.6,1.4c-0.3,0.6-0.8,1.1-1.4,1.6c-0.7,0.6-1.9,0.8-2.4-0.1l-0.3-0.6
		c-0.1-0.2-0.6-0.2-0.8-0.1L92,32.8l-1.3,1.8l-1.4,2c-0.1,0.1-0.1,0.4-0.1,0.4l0.4,0.1c2.3,0.4,1.4-1.5,2.9-1.6c0.7,0,1.2,0.3,1.5,1
		l1.1,0.5c0.2,0.3,0.3,1.3,0,1.6l-1,0.9c-0.4,0.4-0.7,0.7-1.1,0.8c-1.6,0.4-1.3-1.3-2.4-1.2c-3.5,0.1-2.5-0.6-4.9,2.4
		c-0.5,0.6-0.8,1.2-1.1,1.8l-0.7,1.4l0.1,0.3l3.4-0.1l0.3-1.2c0.8-0.7,2.1-0.6,2.7,0.2c0.2,0.3,0.5,0.5,1,0.7
		c0.3,0.1,0.4,0.7,0.3,1.1c-0.1,0.4-0.6,0.7-0.9,1c-0.5,0.5-0.8,1-1.3,1.2c-0.6,0.3-1.6,0.2-2-0.3c-0.7-1-0.8-0.6-3.3-0.5
		c-0.2,0-0.5,0-0.6,0.1c-0.4,0.3-0.2,2.7,0,3.3c0.4,1,1,2.1,1.7,2.9l3.6-0.1c0-1,0.4-1.8,1.2-1.9c1.1-0.2,1.9,0.6,2.6,1.3
		c0.3,0.3,0.7,0.6,0.8,0.8c0.1,0.3-0.3,0.9-0.5,1.1L92,56.1c-0.4,0.4-1.5,0.5-2.1,0.3l-0.7-0.6l-1.4,0c-0.1,0-0.3,0.2-0.3,0.2
		c0.1,0,0.2,0.2,0.3,0.2l2.9,2.1l1.5,1c1.6,1.1,3.1,2.1,4.7,3l1.8,1c0.3-0.6,0.5-1.3,0.5-2.1c-1.7-0.2-3-1.3-3-2.9
		c0-0.5,0.4-1.3,0.9-1.5l1.9-0.4c-0.5-1-0.3-2.1,0.3-2.8c0.7-0.9,1.8-1.1,2.9-0.8c1.4,0.4,1.7,1.9,1.9,3.3l1.2,0.1
		c0.7,0.3,1.4,0.9,1.7,1.5c0.2,0.5,0.1,1.5-0.2,2c-0.2,0.4-0.9,1.1-1.4,1.2c-0.7,0.1-1.3,0.2-2.1,0.3l0.6,2
		c3.7-1.7,7.3-3.8,10.8-6.1c0.3-0.2,0.4-0.2,0-0.2c-0.3,0-1,0-1.2-0.2l-0.7-0.9c-0.8-0.2-1.5-0.8-1.5-1.6c0-1,0.9-1,1.3-1.4
		c0.5-0.6,0.8-1.2,1.7-1.3c0.8-0.1,1.6,0.4,1.8,1.2c0.9,0.2,3,0.1,3.9-0.2c0.9-0.3,1.9-5,1.5-5.6c-0.1-0.1-0.4-0.2-0.6-0.2l-2.5,0
		c-0.5,0-0.7,0.3-0.9,0.7c-0.6,1.1-2.4,1.3-3.2,0.3c-1.1-1.3-1.5-1.2-1.6-1.9c-0.1-0.4,0.1-1.1,0.4-1.2c0.7-0.2,0.9-0.5,1.1-1.1
		c0.1-0.4,0.9-0.7,1.3-0.7c0.6,0.1,1.2,0.4,1.5,0.8l0.7,1l2.7-0.2c-0.6-2.1-1.5-3.8-2.9-5.3c-0.3-0.4-1.3-0.3-1.8-0.3l-1.9,0.1
		c-0.2,0.8-0.4,1-1.1,1.1c-0.8,0.1-1.7,0.1-2.1-0.6c-0.7-1.1-1.6-0.7-1.6-1.6c0-0.5,0.2-0.9,0.6-1.1c1.1-0.7,0.7-1.5,1.8-1.7
		c0.3-0.1,1.2,0,1.4,0.3l0.8,1.3c0.7,0.1,1.6,0,2.3-0.1c-0.3-0.6-0.5-1.1-0.7-1.4l-1.7-2.6c-0.8-0.3-1.9-0.2-2.8-0.2
		c-1.8,0-1.6,1.4-3.1,1.2c-0.4-0.1-0.8-0.5-1.2-0.7c-0.6-0.4-1.3-0.8-1.4-1.7c-0.1-0.6,0.7-0.8,1.2-1c0.2-0.2,0.4-0.9,0.7-1.1
		c0.3-0.2,1.2-0.4,1.5-0.2c0.6,0.4,0.9,0.8,1.4,1.3l2,0c-0.1-1-0.9-1.8-1.2-3.4L108,27l-0.5,1c-0.6,0.3-1.9,0.6-2.5,0l-1.2-1.2
		c-0.2-0.2-0.4-0.5-0.5-0.7c-0.2-0.4,0.6-0.8,1.4-2c0.3-0.4,1.1-0.6,1.7-0.4c0.4,0.1,0.8,0.7,1.2,1.3c0.5,0,1.3,0,2,0l-0.1-2.4
		c0-0.7,0.1-1.5,0.2-2.3c-0.6-0.1-1.7-0.2-2.1,0c-0.4,0.4-0.7,0.9-1.1,1.1c-0.8,0.4-1.5,0.2-2-0.5c-0.5-0.9-1.2-0.5-1.5-1.4
		c-0.1-0.3,0.1-0.9,0.4-1.1c0.5-0.2,0.7-0.4,0.8-0.8c0.2-0.6,1.2-1,1.7-0.8c0.7,0.2,1.1,0.7,1.5,1.5c1.3,0,3.3,0.2,4.1-0.8l0.9-1.2
		c1.3-1.7,3.1-3,5.1-3.8c1-0.4,2.1-0.9,3.3-1c1.9-0.2,3.8-0.4,5.6,0.1c2.6,0.6,3.8,1.4,6.6,2.2l0.9,0.3c1.5,0.4,3,0.7,4.5,0.9
		l2.6,0.4c1.1,0.2,0.8,1.3,0.9,1.2c-0.8,2.4-1.5,4.3-3,6.6l0.2,0.1c1.1-0.3,2.1,0.6,2,1.6c0,0.5,0,1.1,0,1.5c0.1,1.1-1,1.3-1.8,1.5
		c-0.6,0.1-1.4,0.3-2,0.2c-0.3-0.1-0.9-0.7-0.9-1c-0.1-0.5,0.1-1.2,0.3-1.8c-0.7,0.5-1.5,1-2.2,1.4l-2.6,1.3
		c-0.6,0.3-3.2,1.1-3.8,0.2c-0.2-0.3,1-4.6,1.3-5.4c0.3-0.9,0.3-3,0.2-4.1c-0.1-0.9-0.9-1.7-1.5-2.4c-0.8-0.9-1.7-1.3-2.8-1.7
		c-1.7-0.6-3.3-0.6-5.1,0c-1.2,0.4-2.2,0.9-3.1,1.8l0.1,0.2c0.9,0,1.3,0.5,1.8,1.1c0.3,0.3,0.8,0.6,0.9,1c0.1,0.8-0.4,0.9-0.7,1.4
		c-0.5,0.6-0.7,1.1-1.4,1.2c-1.8,0.2-1-1.6-3-1.1c-0.7,1,0.3,4.5,0.9,4.7c0.5,0.2,1.4,0.1,1.8-0.1c0.1-0.4,0.2-0.8,0.3-1
		c0.1-0.2,0.9-0.4,1.2-0.4c0.6,0.1,1,0.6,1.5,1c0.6,0.4,1.3,1.2,0.7,1.9c-0.4,0.4-0.7,0.7-1.1,1.2c-1,1.2-1.7-1.1-3.4-0.3l1,1.3
		l1,1.2c0.2,0.2,0.3,0.5,0.6,0.8l2.5-0.1c0.2-0.6,0.5-1.2,0.9-1.3c0.6-0.1,1.1,0,1.6,0.4c1.2,1.2,1.8,0.5,2.3,1.6
		c0.1,0.3-0.1,1-0.4,1.1c-1.7,0.8-2,1.5-3,1.3c-1.1-0.3-0.6-1.6-2.3-0.9c0.5,0.9,2.1,2,3,2.7l1.7,1.2c0.2,0.1,0.7,0.6,1,0.6l2.3,0
		c0.2-0.7,0.5-1.3,1-1.4c1.2-0.3,1.8,0.6,2.4,1.3c0.3,0.3,0.9,0.6,1,1c0.1,0.6-0.1,1.1-0.5,1.3l-1.1,0.8c-0.4,0.3-0.9,0.4-1.4,0.3
		l-0.4,0c0.9,1.3,1.6,2.6,2,4.1c0,0.2,0.3,0.4,0.5,0.4l1.2-0.2l0.3-1c0.5-0.6,1.3-0.4,1.8,0.2c0.6,0.7,1.7,0.4,1.9,1.3
		c0.1,0.6-0.1,1-0.5,1.4c-0.5,0.6-0.8,1.9-2.1,1.5c-0.5-0.1-0.9-0.5-1.3-1.2L132,47c-0.1,1-0.3,1.8-0.5,2.7c-0.4,1.5-1.6,3-0.5,2.9
		c0.5,0,0.2-1,1-1.2c1-0.2,1.6,0.5,2.3,1.1c0.3,0.3,0.9,0.5,1,0.8c0.1,0.4-0.1,1.1-0.4,1.4l-0.9,0.9c-0.5,0.4-1,0.7-1.7,0.5
		c-0.5-0.1-0.8-0.7-1.2-1.2c-2.3-0.5-3,0.9-4.6,2.5c-0.5,0.5-1.4,0.9-2,1.3c-0.4,0.3-0.8,0.7-1.3,0.9l-2.3,1.3l-2,1.1
		c-0.4,1.8-2.4,0.5-3.7,2.3c-0.4,0.5-0.7,1.2-1.2,1.5l-2.8,1.8c-0.2,0.1-0.4,0.6-0.5,0.6l-0.8-0.2c-0.2,0.4,0,1.3,0.6,1.6l1.8,0.9
		c0.8,0.4,1.5,1.1,1.9,1.9c0.5,2.6,0.6,5-0.4,7.6c-0.2,0.3-0.2,0.5,0.1,0.2c1.3-1.8,3.6-7.6,2.6-9.5c-0.7-1.2-2.3-1.2-3.3-0.5
		l-0.3,0.2c-0.7,0.5,0-3.5,3.4-4.7c4.5-1.6,3.8,0.3,4.9-0.5c1.1-0.8,2.2-1.4,3.6-1.7c1-0.2,2-0.6,3-0.6c1.7-0.1,4.2-0.2,5.7,0.3
		l1.7,0.5l2.1,0.7c1.7,0.5,3.4,1.1,5.2,1.1c3.9,0.1,9.2-1,10.5-5.2c0.3-1.1-0.2-2.4-0.8-3.2c-0.2-0.3-1.1-0.3-1.4-0.4l-0.5-0.1
		c-0.6-0.1,0.5-1.9,1.2-2.3c2.6-1.3,5.6-1.8,7.9,0.5c1-1,0.5-1.4,2-2.4c0.1,0,0.3-0.3,0.2-0.3l-0.8-0.7c-2.6-2.2-8.8-1.1-10.6,2
		c-0.3,0.1-1,0.1-1.2,0c-1.6-0.6-1.5-3.3-1.1-4.6c0.2-0.9,1.2-2.1,1.9-2.7c3.1-2.9,7-3.1,10.8-1.8c0.6,0.2,0.3-1.3,2.6-3.3l0.6-0.5
		c0.1-0.1,0.7,0.1,0.8,0.3c0.2,1,0.9,2.1,1.6,3c0.6,0.7,1,1.4,1.6,2.2c0.9,1.2,0.5,0.6,1.2,1.9c0,0.1,0.2,0.1,0.2,0
		c0-0.1-0.1-0.3-0.1-0.4l-0.6-1.3c-0.7-1.4-0.8-3-0.7-4.6c0-0.3,0.3-0.9,0.4-1.2c0.7-1.7,1.9-3.1,3.3-4.3c1.9-1.5,3.6-2,6.1-1.7
		c1.4,0.2,2.2,0.9,3.1,2c1.8,2.3,1.4,5.7-0.7,7.1c-0.3,0.2-0.9,0.6-1.3,0.7l-1.9,0.6c-0.3,0.1-1,0-1.4-0.2c-0.6-0.4,0.8-1.1-0.1-3.1
		c-0.3-0.6-1.3-1-1.4-0.7l-0.1,0.4c0.6,4.4,2.3,3.8,3.8,7.2c0.3,0.8,0.2,1.8,0.4,1.7l0.3-0.1c2.3-1.2,2.5-0.9,4.1-0.4
		c1.4,0.5,2.6,2.8,2.1,4.4c-2,1.2-1.7,0.3-2.7,2.7c-1.1,2.7-1.1,3.9-1.5,4.9l-0.9,2.1c-0.4,0.9-0.8,1.7-1.2,2.5
		c0,0.1-0.2,0.3-0.1,0.3l0.4,0c1.9,0,4.4,0.3,5.9,1.4c0.5,0.4,0.9,0.7,1.5,1c1.3,0.7,1.7-0.5,1.8,0.1c0.1,0.4-0.2,1.1-0.4,1.5
		l-0.9,1.5l1.5,1.7c1.6,1.8,1.7,4.4,1,6.5c-0.4,0.9-0.7,2-1.3,2.7c-0.9,1.1-3.7,3.8-5.1,3.5c-0.4-1.2,0.5-1.7,0.4-3.4
		c-1.6,0.8-2.9,0.4-4.4-0.2c0,0.5,0.1,1.4-0.2,1.7c-1.1,1.5-4.3,2.6-6,2.4l-2-0.2c-0.2,0-0.7-0.3-0.9-0.4c-0.1,0,0-0.4,0.1-0.4
		l0.3,0c0.4-0.1,1.4-0.1,1.4-0.6c0.2-1.6-0.9-2.3-2.2-2.5l-1.7-0.3c-0.5-0.1-1.3-0.3-1.9-0.2l-5.4,0.6c-0.1,0-0.3,0.1-0.4,0.1
		c0,0,0.1,0.1,0.2,0.2c1.5,0.4,3.1,1,4.6,1.6l3.5,1.5C168.8,86.4,169.7,86.9,170.7,87.5z M110.5,63.9c0.5-0.5-1-2.2,0.5-3
		c0.5-0.3,1-0.5,1.6-0.6c1.7-0.3,0.7,0.2,2.8,0.2c0.8,0,1.5,0.2,2.1,0.7c0.2,0,0.9,0,1.2-0.2l5.7-3.3c3.8-2.2,2.5-3.6,5.2-3.7l1.8,0
		c0.1,0.3,0.4,1,0.5,1.3c0.1,0.2,0.7,0.3,0.8,0.1c1.5-1.5-0.4-0.1,1.6-1.4c0.2-0.1-0.2-0.7-0.4-0.6l-0.9,0.1c0,0,0-0.5,0-0.8
		c0-0.3-0.9-0.7-1.1-0.5l-0.3,1.1l-2.7-0.1l1.2-2.7c1.2-2.6-0.1-4.6,1.5-4.6l2.5,0l0.5,1.5l1.2-0.5l-0.3-0.7l1.1-0.6
		c0.2-0.1-0.1-0.7-0.3-0.7c-0.2,0-0.4,0.1-0.8,0.3l-0.4-1.2c-0.2-0.2-0.9-0.1-1,0l0.1,1.3c-0.3,0.1-0.8,0.1-1.2,0.1l-2.1-0.1
		c-0.8-1.6-0.9-2.3-1.9-4.1c-0.6-1.1-1.6-1.7-2.7-2.7c0.9-0.2,1.6-0.2,2.4-0.3l1.1,0l0.1,1.1c0,0.3,0.6,0.6,0.9,0.5
		c0.2-0.1,0.4-0.5,0.5-0.8c0.1-0.5,0.4-0.2,1.1-0.8c0.1-0.1-0.3-0.4-0.4-0.4l-1.1-0.1c0-0.5,0-1-0.3-1.2c-0.2-0.2-0.8-0.2-1.1,0
		l0,1.2l-3,0.1c-0.8,0-1.5-0.2-2.2-0.6l-1.2-0.8l-1.9-1.4c-0.8-0.6-1.4-1.2-2-2.2c-0.1-0.3-0.3-0.6-0.3-0.9l3.5,0
		c0.1,0.5,0.3,1,0.6,1.1c0.4,0.1,1-0.1,1-0.5c0.1-0.3,0.1-0.7,0.3-0.7l0.6,0c0.1,0,0.5-0.2,0.4-0.3c-0.1-0.1-0.3-0.3-0.4-0.3
		l-1.3-0.1c-0.2-0.4-0.3-0.8-0.4-1c-0.1-0.2-0.8-0.2-0.8,0c-0.1,0.3-0.3,1.1-0.7,1.2c-1.2,0.2-2.5,0.1-3.6-0.1l-0.9-1.2
		c-1-1.4-2.1-2.2-2.3-3.6l2.9-0.2c0.8-0.1,0.7,1.2,1.2,1l0.6-0.2l-0.4-0.8l1.4-0.5l-1.3-0.5c-0.1-0.4-0.2-0.8-0.4-0.9
		c-0.2-0.1-0.8,0-0.8,0.1c0,0.4-0.1,1-0.3,1.3c-1,0.1-2.2,0.1-3.2,0c-1.1-1-1.8-5.3-0.8-6c0.7-0.5,1.8-0.3,2.6-0.3l0.2,1.1
		c0.4,0.3,1.4,0.2,1.4-0.3c0-0.2-0.3-0.7-0.1-0.7l0.7-0.2c0.1,0,0.5-0.3,0.4-0.4l-0.5-0.2c-0.9-0.4-0.3-1.2-1.1-1.2
		c-0.3,0-0.8,0.2-0.8,0.5l-0.1,0.8c0,0.2-0.6,0.2-0.8,0.2l-1.7-0.3c1.3-2.3,3-3.8,5.4-4.8c2.7-1.1,7-0.4,9,2
		c0.5,0.6,1.2,1.5,1.4,2.2c0.8,3-0.4,5.4-1,8.2l0.3,0.1c2.2-3.3,4.9-5.8,8.3-7.9c0.9-0.6,1.8-1.1,2.8-1.5c0.2-0.1,0.3-0.4,0.4-0.7
		l-2.8-0.4c-3.6-0.5-3-0.8-6.1-1.8l-1.8-0.6c-1.8-0.6-3.6-1.5-5.6-1.5c-1.5,0-3.1,0-4.5,0.3c-2.1,0.5-4.7,1.9-6.1,3.5l-2,2.3
		c-0.2,0.2-0.6,0.8-0.9,0.8l-3.7,0c-0.9,0-0.6-1.3-1.4-1.4c-0.3,0-0.9,0.2-0.9,0.4l0,0.8c0,0.1-0.5,0.1-0.6,0.2l-0.5,0.2
		c-0.1,0,0,0.3,0.1,0.3l0.4,0l0.8,0.1l0.2,1.1c0,0.3,0.9,0.3,1.1,0.1c0.2-0.2,0.2-0.6,0.4-1c0.2-0.4,1.2-0.3,1.7-0.3l1.5-0.1
		c1.7-0.1-0.3,1.7,0.7,5.8l0.1,0.4c0,0.1-0.4,0.2-0.5,0.2l-3.4-0.1l-0.4-1c-0.1-0.3-1-0.2-1.2-0.1l0.1,1.1l-1.1,0.1
		c-0.2,0-0.1,0.6,0.1,0.6c0.8,0.1,1.2-0.1,1.2,0.1l0,0.5c0,0.2-0.1,0.6,0,0.6l0.5,0.2c0.2,0.1,0.7-0.1,0.7-0.3
		c0-0.1,0.1-0.3,0.1-0.6l0-0.5c0-0.1,0.3-0.2,0.4-0.2l1.7-0.1l1.6-0.1c1,0,0.3,0.9,1.4,3.1l0.6,1.2c0.1,0.1,0.1,0.5,0.1,0.6
		c0,0.1-0.4,0.2-0.5,0.2l-3.3-0.1l-0.6-0.9c-0.1-0.1-0.5-0.3-0.7-0.4c-0.1,0-0.4,0.3-0.4,0.4c0,0.3,0.1,0.7-0.1,0.8
		c-0.6,0.5-1.7-0.1-1.2,0.8c0.1,0.2,1-0.5,1.3-0.2l-0.1,1.1c0.3,0.5,1.2,0.5,1.4,0l0-1l4.4,0c0.6,0,1.2,0.8,1.4,1.3l1.5,2.4
		c0.4,0.7,0.6,1.4,0.8,2.3c-1.4,0.1-2.6,0-3.9-0.1l-0.3-0.9c-0.1-0.2-0.4-0.5-0.6-0.6c-0.2-0.1-0.8,0.2-0.8,0.4l0,0.9l-1,0.2
		c-0.1,0-0.3,0.1-0.4,0.2c-0.1,0.1,0,0.5,0.2,0.5l0.5-0.1l0.5-0.1c0.5-0.1-0.4,1.2,0.7,1.7c0.4,0.2,1.2,0.1,1.2-0.3l0.1-1.1l2.2,0
		l2.6-0.1c0.4,0.4,0.8,1,1.1,1.4l0.9,1.5c0.3,0.4,0.6,1.1,0.8,1.6l0.7,2c0,0.1,0.1,0.5,0,0.6c-0.1,0.1-0.4,0.2-0.5,0.2l-3.2,0
		c-1,0-0.6-1.3-1.4-1.6c-0.2-0.1-1-0.1-1,0.2l-0.2,1.1l-0.8,0.1c-0.2,0-0.6,0.1-0.6,0.3c0,0.2,0.1,0.5,0.1,0.6
		c0.1,0.2,0.6-0.1,1.3,0c0.1,0,0.2,0.5,0.2,0.6l-0.2,0.7c0.3,0.2,0.7,0.4,1.1,0.4c0.3,0,0.8-0.4,0.8-0.7l0.2-1.1l3.7-0.1
		c0.4,0,1.1,0,1.5,0.2c0.8,2.2-0.2,5.6-1.6,7.4l-5,0.1l-0.3-1c-0.1-0.3-0.8-0.3-1.1-0.2c-0.3,0.1-0.3,0.6-0.4,1.1l-0.9,0.2
		c-0.2,0-0.5,0.2-0.6,0.4c-0.1,0.2,0.2,0.6,0.3,0.6c0.3-0.1,1.2-0.3,1.1,0l-0.1,1c0.1,0.3,0.9,0.5,1.2,0.4c1.3-0.5,0.1-1.7,1.2-1.8
		l2.4-0.2c0.1,0,0.5,0.2,0.5,0.3c0.1,0.8-3.2,3.1-4,3.6l-3.7,2.4l-6.8,3.8c1.7,0.5,1.9,0,4.2,0.7C108.9,65,110,64.4,110.5,63.9z
		 M71.7,56.4c0.4,0.5,1.3,0.5,1.6,0.1l0.2-1.2l2.9-0.3c0.8-0.1,1.1,0.3,1.7,0.8c0.7,0.7,1.6,1.3,2.4,1.9l2.6,2
		c0.5,0.4,1.1,0.8,1.7,1c1.3-1.9,2.3-1.6,3.9-1.1l1.8-0.4l-5.6-4.1c1.9-0.3,3.2-0.3,4.9-0.4l0.5,0.9c0.3,0.1,1.1,0,1.2-0.3
		c0-0.2-0.1-0.7,0-0.8l0.8-0.3c0.2-0.1,0.4-0.2,0.4-0.4c0-0.1-0.4-0.3-0.6-0.3l-0.9,0.4l0.2-1c0.1-0.3-0.6-0.7-0.9-0.6
		c-1.4,0.2-0.3,1.9-1.8,1.9l-3.5,0.1c-0.5,0-0.9-0.4-1.2-0.7c-1.3-1.6-1.8-3.3-1.7-5.4c0-0.6-0.2-1.4,0.2-1.9l4.9-0.2
		c0.2,0,0.7,0.1,0.7,0.3L88,47.5c0.3,0.2,1.3,0.1,1.6-0.2l0.1-1.1l1.3-0.4c0-0.2-0.2-0.5-0.3-0.5l-0.5,0.1l-0.4,0.1
		c-0.1,0-0.2-0.4-0.2-0.5c0.1-0.5-0.2-1-0.9-0.9c-1,0.2-0.4,1-1,1.7l-5.1-0.2c0.4-2.4,2.4-5.1,3.8-6.9c0.2-0.2,0.5-0.5,0.7-0.5
		l4.4,0.1c0.8,0,0.1,1.9,1.3,1.4c0.9-0.3-0.1-1.2,1.3-1.4c0.2,0,0.6-0.4,0.5-0.5c-0.5-0.6-0.7,0-1.4-0.1c-0.3,0,0.1-1.3-1.1-1.4
		c-0.5,0.5-0.2,1.6-1,1.5l-3-0.1c-0.1,0-0.4-0.1-0.5-0.2c-0.1-0.1,0.1-0.3,0.1-0.4l1-1.6c0.3-0.6,0.7-1.1,1.1-1.6l1.4-2
		c0.4,0,1-0.1,1.4-0.1l2.1-0.1c1.7,0,0.6,1.7,1.9,1.6c0.2,0,0.5-0.3,0.6-0.6c0.2-0.9,1.2-0.3,1.3-0.7l0.1-0.5l-1.1,0l-0.1-1.1
		c0-0.3-0.7-0.4-1-0.3c-0.2,0.1-0.4,0.4-0.6,0.8c-0.2,0.6-1,0.6-1.6,0.5l-2.1-0.1c-0.1,0-0.4-0.2-0.4-0.3l0.2-0.3
		c0.4-0.6,0.7-1.1,1-1.7c1.1-2.1,0.7-2.8,1.8-2.8l3.2,0c1,0,0.4,1,1.2,1.3c1.5,0.4,0.7-0.9,2.1-1.5c0.1,0,0.1-0.4,0-0.4l-0.4-0.1
		l-0.4-0.1c-0.1,0,0-0.3,0-0.4c0-0.4-0.1-0.9-0.6-1c-0.2-0.1-0.7,0.2-0.8,0.4l-0.3,1.1l-4.4-0.1l-0.3-2.6l-0.3-2.1
		c-0.1-0.4-0.1-0.9,0.1-1.3l3.8-0.2c0.9-0.1,0.4,1.4,1.2,1.4c1,0,0.4-0.9,1.8-1.4c0.2-0.1,0.4-0.3,0.4-0.4c-0.1-0.1-0.3-0.4-0.4-0.4
		l-1-0.1l0-0.9c-0.2-0.1-1.1-0.3-1.2,0c-0.2,0.3-0.1,0.9-0.1,1.3c-0.1,0.5-4.2,0.4-4.8,0.2c-1.2-2.5-4.6-5.6-7.3-6.4
		c-3.8-1.1-8.1-0.8-11.8,0.8l-3.1,1.3l-2.7,1c-1,0.4-2,0.4-3.1,0.7l2,1.3l2.7,2.1c0.4,0.3,0.8,0.8,1.2,1.2c0.9,0.8,1.7,1.7,2.4,2.7
		l1.3,1.8c0-0.8,0-1.4,0-2.1l-0.1-2.6c-0.1-1.8,0.9-4.4,2-5.4l1.3-1.1c1.1-0.9,2.6-1.6,4.1-1.3c4.5,0.8,5.8,2.3,8.3,5.4
		c0.1,0.1,0.1,0.5,0,0.6c-0.1,0.1-0.5,0.2-0.6,0.2l-1.7-0.3c-0.2-0.5-0.3-1-0.5-1.1c-0.3-0.2-1.1-0.4-1.6-0.1c-0.2,0.1,0.3,1,0,1.1
		l-0.5,0.2c-0.3,0.1-0.5,0.4-0.6,0.8l1,0l0.1,1.2c0.2,0.2,0.9,0.2,1.2,0c0.7-0.4,0.1-1.5,1-1.5l2.1-0.1c1.4,0,0.5,4.4,0,5.5
		c-0.4,1-2.9,0.7-3.3,0.4c-0.3-0.5-0.5-1-0.8-1.1c-0.3-0.2-1-0.1-1.3,0.1L85,25.4l-0.8,0c-0.1,0-0.3,0.1-0.4,0.2
		c-0.1,0.1,0.1,0.5,0.2,0.5l0.4-0.1c0.2,0,0.7-0.1,0.7,0.1c0.1,0.7-0.6,1-0.2,1.3c0.4,0.4,1.7,0.2,1.9-0.2c0.1-0.2,0.2-0.9,0.5-0.9
		c0.5-0.1,2.6-0.3,2.8,0.2c0.2,0.7-2.2,3.4-2.8,4.1c-0.4,0.5-1,0.9-1.6,0.9l-3.1,0c-0.9,0-0.4-1.2-1.4-1.5c-1.6-0.4-0.6,1.2-2,1.4
		c-0.2,0-0.5,0.3-0.5,0.5c0.1,0.1,0.4,0.4,0.6,0.4l0.9-0.1l0.2,1.2c0,0.2,0.9,0.3,1.1,0.1c0.5-0.4,0.2-1.6,0.9-1.6l2.9,0
		c0.4,0.8-1.9,2.5-2.4,2.9l-1.7,1c-0.6,0.3-1.2,0.8-1.7,1.2c-0.3,0.3-0.8,0.9-1.3,0.9c-1.3,0.1-2.3,0-3.6,0c-1.3,0-1-1.2-2-1.3
		c-0.2,0-0.7,0.2-0.7,0.5l-0.1,1c0.8,0.5-0.2,1.7,0.3,1.6l1.2-0.1l0.3-1.2l2-0.1c0.8-0.1,1.6-0.2,2.2,0.4c-1.6,1.1-2.8,3.1-3.5,4.6
		L73.3,46l-3.5,0l-0.3-1c-0.5-0.5-1.6-0.3-2,0.2l-0.1,0.7c-0.1,0.3-1.1,0.1-1.2,0.7c0,0.1,0.2,0.5,0.3,0.5l0.5-0.2l0.3-0.1
		c0.1,0,0.1,0.3,0.1,0.4l-0.1,0.8c0.5,0.5,1.8,0.5,2-0.3c0.1-0.5,0.3-0.8,0.8-0.8l2.8-0.1c0.2,0,0.7,0.1,0.7,0.3l-0.1,0.7
		c-0.2,2,0.6,3.9,1.8,5.4l0.7,0.9c0.1,0.1,0.2,0.4,0.1,0.5c-0.1,0-0.4,0.1-0.5,0.1l-2.3,0c-0.8,0-0.2-1.2-1.4-1.3
		c-0.9,0-0.2,1.1-1.6,1.4c-0.2,0-0.6,0.4-0.5,0.5c0.1,0.2,0.5,0.3,0.7,0.3l1-0.3L71.7,56.4z M68.3,22.5l1.5-1.2
		c0.1-0.1,0.3-0.3,0.3-0.5c0.1-0.1-0.1-0.4-0.3-0.5l-2.3-1.9c-1.1-0.9-2.3-1.5-3.7-2.1c-0.7,0.4,1.1,3.5,1.3,3.7l2,2.4
		c0.1,0.1,0.4,0.3,0.5,0.4C67.8,22.8,68.1,22.7,68.3,22.5z M137.6,22.9l1.1-1.4c0.4-0.5,0.9-1.3,1.2-1.9l0.8-1.7
		c0.1-0.3,0.3-0.7,0.1-1c-1.1,0.5-2,1-2.9,1.7l-2.8,2L137.6,22.9z M139.6,26.9c0.2,0.1,0.6,0.1,0.7,0c0.4-0.6-0.5-1.1-0.4-1.3
		c0.1-0.1,0.2-0.3,0.3-0.5c0.2-0.3,0.1-0.9-0.3-1.2c-0.9-0.6-1.2,0.9-2,0.3l-1.1-0.8l-2.1-1.8c-0.1-0.1-0.3-0.2-0.4-0.2
		c-1.6-0.8,3.2,3.7,2.9,3.4c0.2,0.2,0.4,0.6,0.3,0.8c-0.2,0.3-0.7,0.8-0.7,1.1c0,0.2,0.4,0.6,0.6,0.7c0.9,0.3,1.1-0.8,1.4-0.7
		L139.6,26.9z M66.1,26.7l0.3,0.4c0.2,0.2,0.7,0.4,1,0.4c0.3,0,0.8-0.3,0.8-0.6c0.1-0.6-0.3-1.3-0.6-1.8c0.1-0.4,0.6-1,1-1.3
		l2.3-2.1c-0.3-0.3-0.6-0.3-0.8-0.1l-2.6,2.4c-1.1,1-1.6-0.6-2.7-0.1c-0.3,0.1-0.7,0.6-0.7,0.9c-0.1,0.5,0.8,1,0.6,1.1l-0.3,0.4
		c-0.2,0.2-0.4,0.9-0.1,1C65.3,28,65.8,26.4,66.1,26.7z M136.2,24.3l-1.8-1.9c-0.2-0.2-0.6-0.4-0.8-0.3c-0.8,0.3-4,4.3-4.3,5.7
		C131.5,27.4,134.4,25.7,136.2,24.3z M75.1,26.9c0.1-0.8-0.8-1.5-1.5-2.4c-0.6-0.8-1.3-1.6-2-2.4c-0.4,0.2-0.8,0.5-1.1,0.7l-1.3,1.5
		C71,25.7,72.8,26.7,75.1,26.9z M175.8,41.7c0.2,0.9,0.2,1.5,0,2.6c2.7-0.4,5.4-2.1,5-5.1c-0.3-1.8-1.5-3.9-3.6-4.3
		c-3.1-0.4-5.7,1.3-7.4,3.6c-0.7,0.9-1.6,2.5-1.6,3.6c0,1.6,0.2,3,1,4.3c-0.1-1.9-0.4-3.6,0.8-5.1c0.5-0.6,1.4-1,2.1-1.4
		C173.3,39.3,175.5,40.4,175.8,41.7z M32.5,48.9c-0.1,0.7-0.1,1.2-0.1,1.9l0.5-1.3c0.3-0.8,0.8-1.7,0.9-2.5c0.2-0.7,0.3-1.2,0.5-1.8
		c0.8-2.7-0.4-6.3-2.7-7.7c-0.8-0.5-1.6-1.1-2.5-1.4c-1.1-0.3-2.5-0.3-3.6,0.1c-1.1,0.3-2,1.1-2.8,1.9c-2.4,2.3-1.9,6.7,0.1,7.8
		c0.8,0.5,2,0.7,2.9,0.5c0.9-0.2,1.6-1.1,1.9-1.7c-1.1-0.8-1-2.5-0.4-3.4c0.3-0.5,1.2-1.1,1.9-1c1.5,0.1,3.3,2.6,3.4,4.2
		C32.6,45.9,32.7,47.4,32.5,48.9z M31.7,67.3c4.8,2.4,6,3.1,11.6,3.3l2.8,0.1c0.5,0,1.5,0.2,2,0.4c0.1,0,0.6-0.2,0.5-0.4
		c-0.1-0.1-0.3-0.3-0.4-0.4l-2.3-0.8c-1.8-0.6-5.1-2-6.3-3.3l-1.4-1.5c-0.3-0.3-0.5-0.9-0.6-1.3L37,61.4c-0.2-0.7,0-1.7,0-2.5
		c0-1.1,0.1-2.1,0.5-3.1c0.9-2.5,2-4.7,4.7-5.6c1.3-0.4,3.5-0.4,4.6,0.2c1,0.5,1.6,1.5,2.3,2.3c0.9-1.7,1.2-3.6,0.3-5.3
		c-0.2-0.5-0.7-1-1.1-1.5c-0.7-0.8-2.3-1.4-3.5-1.6c-1.7-0.2-2,0.5-2.5,0c0.6-1.6-0.6-3.1-2.1-3.5c-0.6,1.5-1.1,2.8-2.1,3.9l-1.7,2
		c-1.8,2.1-3.2,5.7-3.4,8.4c-0.1,0.8,0.4,1.9,0.6,2.8c0.1,0.2,0.6,0.5,1,0.7c-0.1,0.1-0.4,0.4-0.6,0.4c-0.2,0-0.6-0.3-0.7-0.5
		c-1.2-1.7-1.5-3.7-1.6-5.7c0-0.8-0.1-1.7-0.1-2.5c0.2-2.1,0.5-7.4-1.9-8.5c0.1,1,0.2,1.8,0,2.7l-0.8,2.8c-0.3,1-1.7,2.3-2,4.5
		c-0.1,0.9-0.3,1.8-0.2,2.7c0.2,2.1,1.1,3.6,2.3,5.2c0.3,0.4,1.2,0.4,1,1c-0.2,0.6-1.3-0.2-1.8-1c-3-4.2-1.8-6.4-2.3-7.2
		c-0.6-1-1.6-1.7-2.7-2c-1.2-0.3-2.6,0.2-3.5,1.2c1.4,0.8,2.2,1.8,2.7,3.2c0.3,0.9,0.6,1.8,0.7,2.8l0.4,2.8c0.1,0.9,0.6,1.7,1.1,2.4
		C27.6,66.9,29.3,66.1,31.7,67.3z M161.3,68.4l-1.8,1.2c-0.8,0.5-1.8,1.1-2.7,1.3c-1.9,0.6-3.3,0.5-4.6,1.1c0.4,0.7,0.8,1.3,1.3,1.7
		c3.5-0.8,7.3,0.6,10.5-0.8c1.1-0.5,2.1-0.9,3.1-1.6l1.1-0.7c0.7-0.5,1.5-0.9,2.1-1.5c1.4-1.4,3.2-2,5.2-2.4
		c0.8-0.2,1.4-0.4,1.8-1.2c1.2-2.1,1.2-2.1,1.9-4.5l0.7-2.6l0.7-2c0.5-1.5,1.2-2.5,3-2.7c0.2-2-0.8-3.8-2.9-4.1
		c-0.9-0.1-1.8,0.2-2.5,0.8c-0.9,0.7,0.3,4.8-1.7,8.2l-0.8,1.4c-0.1-0.1-0.3-0.5-0.2-0.6c1.5-2.3,1.6-4.5,1.5-7.2l0-1.4
		c-0.2-5.3-4.4-5.1-4.2-10.1c-1.8,0.2-2.9,1.8-2.8,3.5c0.1,0.9,0.3,1.8,0.5,2.7c1.1,3.6,1.2,5.5,0,9c0,0.1-0.3,0.3-0.4,0.4
		c-0.1,0.1-0.3-0.3-0.2-0.5c0.3-0.7,0.2-2,0-2.9c-0.2-0.8-0.2-1.5-0.5-2.2c-0.3-0.8-0.9-1.5-1.3-2.2c-0.7-1.2-1.3-2.3-2.4-3.3
		c-1.1-1-1.7-2.5-2.2-3.9c-0.5,0.5-1.1,0.9-1.5,1.4c-1,1.4-0.6,2.8-1.1,3.3c-1.6-1.3-2.2-1.4-4-1.6c-0.6-0.1-1.3-0.3-1.9-0.2
		c-2.7,0.4-4.5,1.5-6.2,3.5c-1,1.2-1,2.4-0.8,3.8c0.1,0.7,0.4,1.5,1.1,1.5c1.1-1.9,3.4-3.3,5.7-3.6c2.8-0.3,3.1-0.3,5.7,0.9
		c1.9,0.9,3.1,4,3.5,6.1c0.2,0.9,0.3,4.9,0.1,6c-0.8,1.9-0.4,1.7-1.4,3.6C162.5,66.8,162.1,67.9,161.3,68.4z M48,53.3
		c-0.5-1.7-2.5-2.7-4.2-2.2l-1.9,0.5l1.8,2.1C44.9,52.8,46.4,52.7,48,53.3z M39.1,55.5l0.8-1c0.5-0.7,1.4-1.2,1.1-2.4
		c-1.3,0.5-2.8,3.4-2.9,4.9L39.1,55.5z M42.9,64.3c-0.5-1.5-0.6-2.4-0.2-3.9c0.2-0.9,0.6-1.9,1.3-2.4c1.7-1.3,3.7-0.9,5.3,0.3
		c1-0.8,0.3-3.3-0.8-4c-1.1-0.7-2.6-0.8-3.9-0.4c-0.7,0.2-1.3,0.9-2,1.5c0-1.2,0.1-2.3-1-2.8c-0.3,1-0.7,1.6-1.2,2.2
		c-0.8,1-1.5,2-2.2,3.1c-0.9,1.5-0.6,4.4,0.1,6.1c0.3,0.7,1.7,2,2.3,2.5c0.8,0.7,1.7,1.1,2.8,1.5c0.7,0.3,1.4,0.6,2.1,0.9l1.6,0.6
		l1.8,0.6c0.2,0.1,0.5-0.4,0.4-0.6C46.1,68.9,43.9,67.4,42.9,64.3z M162.2,53.2c0,1.6,0.7,3,1.5,4.2
		C163.6,56.5,162.8,53.3,162.2,53.2z M154.2,67.5c-0.7,0.7-1.7,1.4-2.5,1.9l-1.6,0.9l1.9,1.4c1.6-0.9,4.4-0.5,6.3-1.9l2.5-1.8
		c2.3-1.7,2.9-4.7,2.6-7.5c-0.2-2.2-1.4-3.5-1.8-5l-0.5-2.1c-1.1,1.6-1.2,2.3-0.6,3.6c0.5,1,0.7,2.1,1,3.2l0.5,1.8
		c0,0.1-0.3,0.4-0.3,0.4c0,0-0.2-0.2-0.2-0.3l-0.4-1.4c-0.5-1.8-0.9-3.5-2-5.1c-0.3-0.5-1.3-1-1.9-1.2c-1.6-0.5-3.2-0.3-4.7,0.2
		c-0.9,0.3-1.7,0.6-1.9,1.6c2.3-0.5,4.3,0.1,5.6,2.1c0.3,0.6,0.4,1.4,0.5,2.1c0.2,1.1,0,2.2-0.3,3.2C156,65.3,155.6,66.1,154.2,67.5
		z M101.8,64.2c0.4,0,0.9,0,0.9-0.2l-0.5-2.8c-0.1-0.5,0.2-1.2,0.8-1.1c0.6,0.1,1.3,0.2,1.7,0.1c0.8-0.2,1.3-0.8,1.3-1.4
		c0.1-0.6-0.2-1.4-0.9-1.6c-0.8-0.2-1.7-0.1-2.5,0c0.2-1.4,0.4-2.4-0.7-3.3c-0.5-0.4-1.5-0.4-2,0c-0.8,0.7-0.9,2-0.3,2.7l0.4,0.4
		c0.1,0.1-0.4,0.3-0.5,0.3l-1.4-0.1c-0.4,0-1,0.3-1.2,0.5c-0.2,0.3-0.2,1,0,1.4c0.8,1.8,2.4,0.9,2.8,1.3c0.4,0.4-0.4,3-0.5,3.7
		L101.8,64.2z M134,69.6c0.7,0.3,1.3,0.8,1.8,1.4c1.5,1.8,2.7,3.2,1.2,5.8c1.4,0.9,3.3,1.2,4.8,0.4c0.3-0.2,0.8-0.5,1-0.3
		c1.7,1.4,2,1.8,4.6,1.5c0.6-0.1,1.2-0.5,1.8-0.8c0.2-0.1,0.6,0.4,0.9,0.7c0.7,0.6,4,0.8,5.3-0.2c0.4-0.3,1.7-1.8,1.2-2.4
		c-5-0.5-3.6-4.1-8.3-5.2c-0.4-0.1-0.9-0.2-1.2-0.4c0.5-1,1.5-0.3,3.1-1.2c3.6-1.8,4.9-3.3,5.6-7.3c0.3-1.9-0.9-4.6-3.3-4.9
		c0.7,1.2,1.6,2.3,1.2,3.7c-0.9,2.8-3.4,4.7-6.2,5.3l-1.3,0.3c-2,0.4-5.5,0.3-7.3-0.3l-4.1-1.3c-1.6-0.5-3.2-0.8-4.9-0.7l-2.6,0.1
		c-0.3,0-0.9,0.3-1.1,0.3c-1.3,0.3-2.5,0.5-3.6,1.1c-0.4,0.2-0.8,0.6-1.2,0.9c-0.9,0.7-2-0.8-4.7,0.3c-1.3,0.5-3.1,1.6-3.2,2.9
		l1.6-0.2c0.5,0.2,1.5,0.7,1.8,1.1c0.7,1.1,0.4,3.3,0.1,4.4l-1.1,3.4c-0.1,0.4-0.2,0.7-0.3,1.1c1.1-1.6,2.2-3.2,2.8-5.1
		c0.6-1.6,0.9-3.2,1.9-4.6c0.5-0.7,1.5-1.5,2.3-1.7c1-0.3,2.5,0,3.2,0.7l0.7,0.7C129.8,67.7,130.9,68.2,134,69.6z M61.9,78
		c-0.1-2,0.2-4.6,1.8-5.9c1.9-1.6,4.1-2.2,6.7-2.3c2-0.1,2.8,0.6,3.1-0.1c0.6-1.2,1.5-2,2.7-2.3c1.6-0.4,3.2,0.3,4.5,1.2
		c1.5,0.9,2.4,2.3,3,4c0.6-2,0.6-3,2.7-3.8l1,0.1c0-2.1-1.7-3.7-3.8-3.8c-2.7-0.1-3.6,0.8-4.8-0.1c-0.4-0.3-0.9-0.8-1.3-0.9
		c-2-0.4-3.9-0.4-5.9-0.1L65.5,65l-5,0.8c-4.1,0.6-11.1-0.5-13.6-4c-0.4-0.6-1-2.6,0.5-3.4c-1.1-0.5-2.2,0-3,0.8c-1,1-1.2,2.2-1,3.7
		c0.3,2.4,1,4,3.2,5.2c2.2,1.2,2.1,0.3,3.7,1.3c-0.9,1.7-2.1,3.1-3.9,3.8c-2.1,0.9-3.9-0.6-3.3,1.4c0.4,1.4,1.4,2.4,2.8,2.8
		c1.8,0.6,3.5,0.7,5.4,0.2c1.8-0.5,3.6-1,5.2-2l0.2-1.5c0.1-1.1,1-2,1.8-2.8c0.5-0.5,1-0.7,1.6-1c1.3-0.7,2.5-1.2,4-1.6l1.8-0.4
		c0.1,0,0.3,0,0.4,0c0.1,0,0.1,0.1,0,0.1c0,0.1-0.2,0.2-0.3,0.3l-2.4,0.7c-1.2,0.3-2.6,1.1-3.7,1.7c-1.5,0.9-2.9,2.3-2.4,4.2
		l0.8-0.4l-0.8,0.8C58.1,77.3,60.1,78.3,61.9,78z M91,64.1c-0.1-0.1-0.2-0.6-0.1-0.7l0.5-0.3c1.1-0.8-0.1-2.4-0.7-2.7
		c-0.6-0.3-1.3-0.1-1.9,0.2l-1.5-0.4c-0.8-0.2-1.6,0.2-1.9,1.1c2.9,0.8,1.5,2.4,3.8,4.2c1.2,0.9,1.9,1.5,3.1,0.7L91,64.1z
		 M93.4,65.7c0.8-0.3,1.3-0.4,1.9-0.6l2.8-0.7c-1.4-0.7-2.7-1.5-4.1-2.4l-2-1.3l0.4,1.4c0.4,1.2-1,1.1-0.9,1.8
		C92,64.5,92.9,65.4,93.4,65.7z M111,66.4c4.5-1.6,2.1-3.4,6.6-4.3c-0.5-0.8-1.6-1.3-2.7-1c-0.5,0.1-0.7,0.1-1.2-0.1
		c-0.7-0.3-1.8,0-2.4,0.5c-0.4,0.3-0.1,1.1,0.1,1.5c0.6,1.1-1.2,2-1.9,2.6L111,66.4z M100,68.7c0.7-0.5,2-0.7,2.7-0.4
		c0.6,0.2,0.1,1.5,1,1.5c0.3,0,0.5-0.4,0.5-0.6c0.1-0.9,0.8-1.3,1.6-1.2c0.8,0,1.4,0.2,1.6,1c0.4,0,1.1-0.2,1.3-0.5
		c-0.1-0.9,0.4-1.4,1.4-1.5c-1.2-1.2-2.7-1.5-4.3-1.7c-3-0.4-5.8-0.6-8.7,0.1L94.6,66c-0.8,0.2-1.7,0.6-2.4,0.9c2,1,0.7,1.7,3.8,2.4
		c0.4-1,0.9-1.4,1.9-1.4c0.3,0,0.8,0.2,0.9,0.5c0.1,0.2,0.2,0.8,0.2,1.1l0,0.4c0,0.1,0.4,0,0.4,0C99.6,69.5,99.8,68.9,100,68.7z
		 M50.2,81c1.9-0.2,3.7-0.4,5.6-0.7l2.9-0.5l4.4-0.7c1-0.2,6.1-2.2,8.8-2.8c1.7-0.4,3.5-0.3,5.2-0.1c1.5,0.1,2.9,0.6,4.2,1.2
		l2.5,1.1c-1.1-1.3-2.4-2.2-4-2.8c-5.2-1.8-6.1-0.5-10.6-0.1l-1.1,0.1c-1.5,0.1-3.5,0.3-5.2,0l-0.2,1.6c0,0.4-0.2,1.2-0.5,1.3
		c-1.3,0.4-2.9,0.1-3.8-0.8l-1.2-1c-1.7,0.9-4.4,1.6-6.3,1.8c-0.7,0.1-1.6,0.3-2.2,0.3c-1.8-0.1-3.5-0.8-4.8-1.8
		c-1.4-1-1.8-3.8-1.4-4.1c0.7-0.5,3.4,0.7,5-1.2c-2-0.9-6.7-0.4-7.6-0.6l-3.6-1c-2.4-0.6-4.9-2.6-7.9-3c-3.8-0.6-6,2.1-9.7,0.2
		c-0.2-0.1-0.5,0.5-0.5,0.7c0,1.1,0.4,2.1,1,3.3c-1.9,0.8-2.1,0.2-3.7,1.7c-1.7,1.5-2.1,3.4-2,5.6c0.1,3.7,2.2,6.3,6.1,6.4L18.5,83
		c-0.3-0.4-0.5-1.2-0.6-1.8c-0.1-0.6,0.2-1.5,0.4-2.1c0.4-1.3,1.4-2,2.5-2.8c0.5-0.3,1-0.8,1.5-1c1.6-0.7,4-1.8,5.7-0.9
		c-0.7,1-2.8,0.5-2.8,0.8L25,75.7l-0.4,1.5c-0.4,1.8-2,2.2-2.2,3c0,0.2,0.2,0.5,0.4,0.6l1.4,0.8c-0.2,1.2-0.3,2.5,0.5,3.6
		c0.9,1.2,3.4,2.1,4.8,0.6c-0.5-0.4-1.2-0.8-1.3-1.4c-0.1-1.6,1.2-2.8,2.6-3.3l2.3-0.8c1.3-0.4,2.8-0.6,4.2-0.5l3.7,0.2
		C44.8,80.4,45.8,81.3,50.2,81z M158.3,81.9c2.4-0.6,4.7-0.9,7.2-1c1,0,2.1,0.2,3.2,0.4c1,0.1,2,0.6,2.8,1.4
		c0.8,0.8,0.8,1.9,0.3,3.1l3.3-0.5c0.8-0.1,2.8-1.1,2.7-2.5l-0.4-0.7c1-1.7,1.8,1.3,4.8,0.3l-0.7-0.5c-1.2-1.1-1.4-1.2-1.7-3.2
		c0-0.3-0.1-1-0.3-1.1c-1.5-0.8-3.3-0.9-5-1l-2.5-0.1c-0.2,0-0.6-0.1-0.7-0.2c-0.2-0.1-0.1-0.7,0.1-0.7l3.3-0.1
		c2.5-0.1,4.9,0.6,6.8,2.2c0.6,0.5,1.1,1.3,1.5,2c0.7,1,0.9,2.3,0.8,3.5l-0.1,1.9c1.7-0.7,3.8-3,4.4-4.5c0.9-2.4,1-3.8-0.3-6.1
		c-0.3-0.6-1.3-1.8-1.8-2.1c-0.8,0.2-1.7,0.4-2.4,0.5c-0.3,0-0.7-0.8-0.6-0.9c2.4-0.4,2.8,0.2,4.1-2.1c-2.6-0.8-2.7-1.9-4.9-2.4
		c-2.2-0.5-4.4-0.6-6.6,0c-3.2,0.8-3.1,1.2-5.8,3l-1.1,0.8c-1.8,1.2-4.7,3-6.9,3.2c-1.5,0.1-4.8-0.8-7.2,0c2.1,1.4,2.3,0.3,3.2,0.5
		c0.7,0.1,0,4.5-3.5,4.8c-1.3,0.1-2.5,0.1-3.7-0.3c-0.3-0.1-0.9-0.5-1.2-0.5c-1.5,0.9-3.5,0.7-5-0.1l-1.6-0.9
		c-0.7,0.5-1.3,0.6-2.1,0.7c-1.6,0.1-2.9-0.2-4-1.3c-0.3-0.3-0.3-0.7-0.1-1l0.6-0.9c-0.5-0.3-0.9-0.3-1.3-0.4
		c-0.8-0.2-1.5-0.4-2.4-0.4c-0.9,0-1.8-0.2-2.6-0.1c-1.7,0.2-3.3,0.5-4.8,1.1l-2.1,0.9c0.8,0.1,1.3-0.1,2-0.2
		c0.7-0.1,1.5,0.1,2.2,0.2c1.9,0.2,5.4,0.9,7.1,1.5l3.7,1.3l2.6,0.8l2.2,0.7c1.3,0.4,2.3,0.6,3.7,0.7c0.5,0,1.3,0.3,1.9,0.3l3.5,0
		L158.3,81.9z M73.2,73.2c4.8-0.5,8.9,2.1,12.2,5.3c-1.5-3.2-1.8-6-4.2-8.4c-0.5-0.5-1.4-0.8-2.1-1.1c-1.7-0.7-3.8-0.9-4.7,1.1
		c-0.8,1.7-4-0.8-8.2,1.3c-0.5,0.3-2.3,1.6-2.1,2.2c0.1,0.1,0.4,0.3,0.5,0.3l1.7,0c1.4,0,2.6-0.2,3.9-0.3L73.2,73.2z M131.4,72.1
		l2.5-0.2l1.3-0.1c-0.4-0.7-1-1.2-1.7-1.4c-2.5-1.4-4.5-1-7.1-0.1c-1.2,0.4-1.4-1.3-2.5-1.4c-0.9-0.1-1.8,0.4-2.5,1
		c-1.6,1.6-1,3.3-2.9,6.3l-1.1,1.7c-0.4,0.7-0.8,1.2-1.2,2l3.6-1.8c0.7-0.4,1.3-0.9,2-1.3l1.5-1.1l2.2-1.5
		C127,73.2,129.6,72.1,131.4,72.1z M101.9,69.8c0.2,0,0.3-0.6,0.2-0.6l-0.5-0.1c-0.4-0.1-1.2,0.1-1.1,0.6
		C100.7,69.8,101.5,69.9,101.9,69.8z M95.8,85.8c-0.4-0.7-0.7-1.1-1.2-1.6L94,83.3c-1.3-1.6-2-3.6-2-5.6c0-2.7,1.5-3.7,3.3-5.3
		c0.6-0.5,1-1.4,1.3-2.2l-2.1-0.5c-0.1,0-0.4-0.2-0.5-0.2L93.8,70c-1.8,2.4-3,2.8-3.7,5.2c-0.2,0.6-0.4,1.3-0.2,2
		c0.1,0.7,0.1,1.4,0.3,2c0.5,1.7,1.5,3.2,2.4,4.8l0.8,1.3L95.8,85.8z M109.1,83.5c-0.3,0.5-0.5,1.1-0.8,1.8c1.6-1,2.3-2.4,2.8-4.1
		c0.6-2,1.3-5,0.3-6.9c-0.9-1.9-1.6-2.7-2.8-4.3c-0.4-0.6-1.6-0.1-1.6,0.1c0,0.7,2.2,3.4,3.2,3.8c1.4,2.4,1.6,4.6,0.2,7.1
		L109.1,83.5z M99.8,85l-1.1-3c-0.9-2.5-0.3-4.8,0.2-7.3c0.6-2.7,1.3-2.6,1.3-4.1l-1.5,0c-0.8,1.8-2.3,3.2-2.9,5
		c-0.8,3,0.1,6.5,1.6,9.1c0.8,1.4,0.5,1.6,2.6,1.7C100.1,85.8,100,85.4,99.8,85z M107.6,76.6c0-1.9-0.9-3.4-2-4.8
		c-0.2-0.3-0.6-1.1-1-1.2c-0.5-0.1-1.2,0-1.7,0l0.9,2.6l0.9,2.6c0.2,0.7,0.3,1.6,0.4,2.4c0.3,2,0,4-0.6,5.9l-0.7,2.2l2-0.3
		C107.1,83.5,107.6,79.5,107.6,76.6z M103.8,82.1l0.2-2.2c0.1-1.2,0-2.4-0.3-3.6c-0.1-0.5-1.9-7.2-2.7-5.2l-0.8,2.1
		c-0.6,1.6-1,3.4-1.2,5.1c-0.2,2.1,0.5,3.9,1.2,5.8l0.8,2.2c0.4,0.1,1.1,0.1,1.6,0C103.1,85.7,103.7,83,103.8,82.1z M113,78.5
		l0.3-1.5c0.4-2-0.2-5.6-2.8-6l1.6,2.5c0.4,0.6,0.5,1.6,0.6,2.4c0.1,1.4,0,2.5-0.2,3.9C112.7,79.4,113,78.9,113,78.5z M88.9,80.3
		c-0.5-4-0.4-5.9,1.9-9c-1.9,0.1-3.2,2.3-3.3,4C87.3,77.2,87.9,78.8,88.9,80.3z M133.2,73.9l3.7,0.5c-0.2-0.7-0.5-1.3-0.9-1.8
		c-3.1,0.1-7.6,0.2-10.2,2.3C128.6,74.2,130.1,73.4,133.2,73.9z M95.7,84.3c-0.2-1.5-0.9-2.2-1.1-3.8c-0.4-2.7,0.4-5.1,1.3-7.5
		c-1.6,1.1-3,2.3-3.2,4.1C92.5,79.7,93.9,82.5,95.7,84.3z M108.3,82.6c0.8-1.2,1.3-2,1.4-3.3l0.1-1.7c0.1-1.7-0.4-3.5-2.1-4.4
		c0.3,1.2,0.6,2.1,0.7,3.2c0,1.7,0,2.9-0.3,4.5l-0.6,3.1L108.3,82.6z M65.8,75.3c0.7,0.1,1.3-0.1,1.9-0.2l3-0.4l2.5-0.3
		c0.9-0.1,1.8-0.3,2.7-0.4c-1.2-0.4-2.3-0.1-3.5,0l-2.3,0.2l-1.4,0.2c-1.6,0.2-3.2,0.1-4.8,0c-0.2,0-0.5-0.1-0.6,0L63.1,75
		L65.8,75.3z M78.5,81.9c3.7-1,5.1-0.5,8.6,0.5c-2.2-2.5-3.4-3.5-6.6-4.6c-2.4-0.8-4.9-1.1-7.4-0.9c-1.6,0.2-3,0.7-4.6,1.2l-1.6,0.5
		l-2.6,1.1c-0.9,0.4-2.8,0.5-2,1.1c1.2,1,2.7,1.5,4.2,1.8c2.1,0.4,4.1,0.4,6.2,0.2C74.6,82.7,76.5,82.5,78.5,81.9z M135.3,80.7
		l1.8-0.7c-0.4-0.3-0.6-0.4-1-0.5l-2-0.6c-1.3-0.4-2.7-0.8-4.1-0.9c-5.6-0.4-7.7-0.1-12.5,2.6c-0.1,0-2,0.5-2.8,1.8
		c2.3-0.5,4.3-1,6.6-0.9C125.7,81.8,129.5,84.9,135.3,80.7z M181.4,79.6l-1-1c-0.4,0.8,1.3,2.6,2,2.9
		C182.4,80.6,181.9,80.2,181.4,79.6z M143.9,82.1c-0.5-0.3-1.1-0.5-1.6-0.6l-4-1.1c0.1,0.6,0.4,1.2,0.8,1.6
		C140.7,81.8,142.2,81.9,143.9,82.1z M136.1,95.4c0.8,0.5,1.7,1,2.4,1.6l2.2,1.9c0.5,0.4,5-1.2,2.9-1.8c-2-0.6-3.8-1.7-5.4-3.1
		c-0.3-0.2-0.5-0.8-0.4-1.1c0.1-0.2,0.5-0.6,0.7-0.7l2.4-0.6c1.2-0.3,2.3,0,3.7,0.1c0-0.6-0.3-1.1-0.6-1.5c-0.9-1.1-1.9-1.1-3.1-0.7
		c-2.2,0.7-5.6,1.1-7.4,2.5c-0.5,0.4-0.8,0.5-1.4,0.1c1.3-2.7,9.9-4,12.7-4.2c1.1-0.1,3.6,0.6,4.1,0.9l1.5,1c0.7-1.7-1-3.5-2-4.3
		l-1.4-1.1c-1.3-1-3.9-1.3-5.6-1.5c-2.5-0.2-3,0.6-3.7-0.9l-0.7-1.4l-1.3,0.8c-1,0.6-1.9,1.1-2.9,1.6c-3.5,1.6-6.6,0.4-10.2-0.4
		c-2.3-0.5-6.8,0-8.9,1.3l-1.2,0.9c1.6-0.2,3,0.1,4.3,1c2.3,1.6,2,3,6.3,5.4l5.6,3.1c0.8,0.4,1.6,0.8,2.3,1.3l3.9,2.4
		c0.8,0.5,1.5,1.1,2.2,1.7c1.2,1,2.1,2.1,2.8,3.5c1.1,2.2,0.8,1.8,0.8,4.4c0.8-0.3,1.4-1,1.5-1.9l0.3-1.9c-1-3.3-3.4-5.7-6.2-7.4
		c-0.9-0.5-1.8-1.1-2.8-1.5l-3-1.2c-0.8-0.3-4-1-3.6-2.1l2.4,1l3.5,1.4C134,94.2,135,94.7,136.1,95.4z M43.6,87.4l0.1,0.4
		c-0.6,0.3-0.9,0.5-1.2,0.8l-3.1,2.1c-1.1,0.8-3.1,2.5-4.1,3.5c-1.9,2.1-3.4,4.5-4.9,7c-1.3,2.3-2,4.7-2.5,7.3
		c-0.4,2.1-0.3,4.3,0.4,6.4c1.1,3.3-0.7,2.3-0.8,3.8c0,0.3,0.3,1.1,0.6,1.2c4.5,1.4,8.4-4.5,8.5-7.5l0.1-3.7l0.4-1.6
		c0.8-3.4,1.3-4.1,3.1-7.1c1-1.7,2.2-3.4,3.7-4.7l2-1.8c0.1-0.1,0.6-0.1,0.5,0c0,0.1-0.2,0.3-0.2,0.4c-2.2,1.7-3.5,3.3-5,5.6
		c-1.4,2.2-3.3,5.7-3.6,8.3c-0.1,0.7-0.3,1.5-0.2,2.2l0.2,2.3c1.1,0.6,4.4,0.3,4.9-0.6c0-0.1-0.1-0.3-0.1-0.4
		c-0.3-0.7-0.6-1.4-0.8-2.2c-0.4-1.6,0-2.5,0.6-4.2c2.7-7.5,7.3-8.1,8.2-9.8c0.9-1.5,2.4-2.1,3.9-2.8c0.4-0.5,0.7-1,1.3-1.6
		c-2-0.9-6.7,0-8.7,1.2c-0.1-2.2,1-3.4,2.3-4.8c1.1-1.2,2.6-2,4-2.8c3.4-2,5-0.6,7.4-3.5c-0.5,0-1,0.3-1.4,0.3l-3,0.6L54.7,82
		c-2.1,0.5-4.2,1.1-6.3,1.7l-3.6,1.1c-0.5,0.2-1.1,0.4-1.6,0.6l-2.9,1.4c-1.6,0.8-3,1.8-4.4,2.8c-1.6,1.2-2.9,2.6-4,4.1
		c-0.9,1.3-1.7,3.6-2,5.2l-0.3,1.6c-2.5-0.2-2.8-1-4-3.1c-1.5,1.1-2.7,2.4-4.3,3.2c-2.5,1.2-5.2,1.8-7.9,1.9l-1.3,0
		c0.3,1.3,1.6,2.2,2.7,2.8c1.6,0.9,2.9,0.7,4.8,0.1l-1.2,2.3c-1.4,2.8-1.5,5.1-1.4,8.2c0,2.6,0.1,3.8,0.8,6.2
		c0.4,1.4,1.2,3.8,1.9,4.9c1.2,1.8,2.9,4.4,4.7,5.5c-0.9-2.4-0.7-2.5-1.2-4.7c-0.5-2-0.2-5.2,0.1-7.2l0.5-3c0.2-0.9,0.5-1.8,0.7-2.8
		c0.4-1.5,1-2.8,1.8-4.1l0.8-1.3c0.5-3,1.3-5.8,2.7-8.5l0.7-1.3c0.4-0.8,1-1.6,1.5-2.3c1.3-1.8,2.7-3.6,4.4-5l2.3-1.9
		c0.8-0.6,1.7-1.2,2.5-1.7L43.6,87.4z M60.5,98.5l-3.4,1.4l1.1,0.7c3.1,2.2,5.7-1.9,6.1-1c0.1,0.1,0,0.5-0.1,0.6
		c-2.3,1.8-2.9,1.2-3.6,2c-0.3,0.3-0.2,0.9-0.2,1.3c0.2,1.5,0.8,2.8,2.3,3.6c0.3-1.2,0.5-2.3,1.1-3.2c1.1-1.6,2.4-3,3.8-4.2l4.1-3.5
		c1.1-1,4.2-2.7,5.6-3.5c0.7-0.4,1.4-0.9,2-1.3l1.5-1.2c0.5-0.4,1.7-1.8,2.5-2.6c2.6-2.6,3.7-2.4,7.3-2.9l-2.5-0.9
		c-2.3-0.9-5.2-2-7.8-1.5l-3.9,0.9c-2.1,0.4-4.1,0.5-6.3,0.6c-2,0.1-4-0.3-5.9-0.9c-2.1-0.6-2.7-2.3-3.5-1.5
		c-3.6,3.6-3.2,1.3-6.8,3.2C53,85,52.2,85.5,51.3,86c-1.2,0.8-3.5,3-3.9,4.6c3-1.2,4.9-1.7,8-1.4c1.1,0.1,2.3,0.2,3.4,0.4l2.5,0.5
		c0.4,0.1,0.9,0.3,1.3,0.5l1.8,0.8c0.1,0,0.2,0.3,0.3,0.4c0,0.1-0.3,0.2-0.4,0.2c-0.7-0.3-2.1-0.7-2.9-0.9l-1.7-0.3l-2.5-0.4
		c-1.7-0.3-3.8,3.1-3,4.7c2.5-1.6,6.8-1.8,9.4-0.6c0.6-0.6,1.1-1.3,1.5-2c1.1-1.8,2.7-3.1,4.4-4.3c0.9-0.6,4-2.2,5.1-2.1
		c-0.5,0.8-1.3,0.8-2,1.2c-2.1,1.2-4.2,2.5-5.8,4.3c-0.8,0.9-1.4,1.9-2.2,2.9l-1.6,2C62.5,97.2,61.4,98.1,60.5,98.5z M189.9,97.8
		c-0.9-0.2-1.6-0.3-2.3-0.7l-1.7-0.8c-3.4-1.6-5.1-2.9-8.3-4.5l-2.2-1.1l-2.2-1.1l-1.2-0.7l-2.4-1.4c-1.3-0.7-2.6-1.3-3.9-1.8
		l-3.4-1.4c-1.5-0.6-3.1-0.9-4.6-1.2c-2.4-0.5-4.5-0.6-6.9-0.3l3.1,1.1c0.5,0.2,1,0.4,1.4,0.6l3.9,1.7c0.8,0.4,4.1,2.4,4.7,3l2,1.8
		l1.1,1.1c0.8,0.8,1.5,1.7,2.1,2.6c0.4,0.6,0.2,1.6,0.3,2.4c2.8-1.5,2.4-2.4,2.3-4.6c0-0.2,0.3-0.7,0.5-0.6c0.3,0.2,0.9,0.6,1.2,0.8
		c2,1.3,4.1,2.3,6.3,3.3C182.1,97.1,187.5,98.7,189.9,97.8z M25.8,95.5c0.4,0.8,0.3,3.8,3,4.4l0.2-1.5c0.3-2.2,1.2-4,2.4-5.9
		c0.7-1.2,2.5-2.8,3.6-3.5l2.7-1.8c2.7-1.8,4.9-2.6,8.1-3.6c0.6-0.2,1.2-0.4,1.8-0.7c-1.7,0.1-3.3,0.3-4.9,0.8L39,84.8
		c-1.4,0.4-2.8,0.7-4.1,1.3c-2.9,1.2-7.1,3.5-9.4,5.6c-1,0.9-1.8,1.7-2.7,2.7l-3.9,4.3l-1,1.2c-0.6,0.6-1.2,1.2-1.8,1.7
		c2.7-0.3,5.4-2.1,7.5-3.7C24.6,97,25.6,95.2,25.8,95.5z M145.1,111.9c0-0.2,0.1-0.6,0-0.7c-0.8-0.3-1.8,0.3-3.9-0.4
		c0.5,1.2-0.8,2.1-1.5,3.9c-1.1,2.9-1.6,5.9-1.6,9.1c0,1.7,0.3,3.5,0.9,5.1l0.8,2l-1.2,0.9l-1.7,1.3c-1,0.7-2.4,2.2-2,3.5
		c0.5,1.9,1.1,3.7,2.1,5.4c2.1,3.4,5.3,6,8.9,7.8c0.3,0.2,0.7,0.4,1,0.7l1.3-1.1c1.3-1.1,3.1-1.7,4.9-1.3c0.7,0.2,1.5,1,1.9,1.5
		c0.7,0.9,0.4,2.1-0.1,2.9c-0.1,0.3-0.1,0.4,0.1,0.2c1-1.1,2.1-1.8,3.5-2.2c-0.8-1.3-0.9-2.7,0-3.8c0.7-0.9,1.8-1.4,2.9-1.6
		c0.3-1.2,0.5-2.4,1.9-3c-1.1-1.3-2.7-2.5-2.6-4.4l0.1-1.7c0-0.9,0.4-2,1-2.7l1.8-2.2c0.1-0.2,0.5-0.4,0.7-0.4c0.9,0,0.6,1.1,2.3,2
		c0.7,0.4,1.5,0.7,2.3,0.9c1.9,0.3,3.9,0.4,5.7-0.2c1-0.3,1.8-0.8,2.8-1.1c1.5-0.6,2.1-2.6,2.1-2.2l0.1,0.4l0.4,0.2
		c3.1-2.4,1.6-1.1,3.5-3.5c1.3-1.7,2.5-4.7,2.7-6.9c0.1-1.1,0.2-2.3,0-3.4l-1.1-6c-0.3-1.4-0.6-2.6-1.1-3.9c-0.2-0.5-0.3-1-0.3-1.5
		c1.1,1,2.1,5.4,2.4,7l0.3,1.5c0.4,2,0.6,4,0.5,6.1c0,0.8-0.7,3.1-1,3.9c-1.2,2.8-2.9,5.5-5.4,7.1l-2.2,1.4
		c-2.2,1.4-5.2,2.4-7.9,2.3c-1.1-0.1-2.9-0.5-4-1c-0.5-0.2-1-0.7-1.4-1.2l-0.9-1.2c-1.1,2.6,0,5.5,1.9,7.6c2,2.1,4.7,3,7.5,3.5
		c4.3,0.8,8.9-0.2,12.1-3.2c0.3-0.3,0.7-0.6,1-0.9l1.8-2.1c2-2.4,2.8-9.2,3.1-12.4c0.2-2.2-0.2-4.3-0.5-6.5
		c-0.1-0.8-0.2-1.6-0.5-2.4l-1.4-4.1c-0.1-0.4-0.4-0.8-0.6-1.1l-1.5-2.4c-0.4-0.6-0.8-1.2-1.2-1.8l-0.8-1c-1.1-1.4-3.3-1.6-3.5-1.9
		l-0.9-1c1-0.2,1.8,0,2.7,0.1l3.5,0.3c1.2,0.1,2.3,0.1,3.2-0.9c0.5-0.6,0.8-1.7,0.8-2.4c-1.4,0.5-5,0.3-6.1-0.1l-3.4-1.2
		c-2-0.7-3.7-1.8-5.5-2.7l-3.5-1.8c0.4,1.1,0.5,2.1-0.1,2.9c-0.8,1.1-1.9,2-3.2,2.2l-0.1-1.4c-0.1-0.8-0.3-1.5-0.9-2.1l-1-1.2
		c-1.3-1.4-1-0.8-2.7-2.4c-0.9-0.9-2-1.7-3.1-2.3l-1.7-1.1c-1.2-0.7-2.5-1.3-3.9-1.7l-3-1.1l-1.2-0.4c-1.2-0.4-2.3-0.7-3.5-1
		c1.3,1.1,2.6,1.8,3.5,3.1c0.9,1.3,1,4.5-0.2,4.4c-0.4,0-1.1-0.5-1.5-0.7c-1.5-0.9-3.3-1.2-5.1-1.1c0.5,0.7,1.6,2.7,1.1,3.3
		c-0.1,0.1-0.6,0.3-0.8,0.2c-2-0.4-4.3-0.5-6.1,0.8c0.9,0.9,1.9,1.5,3,2.1c1.6,0.9,3.7,0.7,3.4,1.3c-0.7,1.9-1.4,2.3-3.4,3
		c0.9,2.8,1.4,0.9,1.6,4.2l0.1,0.9c-0.5,2.3-1,2.8-3.2,3.8c0.1,1.5,3.5,2,4.6,1.4l0.3-2c0-0.1,0.3-0.3,0.3-0.2c0,0,0.2,0.3,0.2,0.4
		l-0.1,2.7c0,0.4,0,0.7,0.1,1c0.5,1.5,1.1,2.8,2.2,4c2.9,3.3,2.9,1.2,3.7,2.5c1.3,2.1,1.6,1.4,2.5,2.4c1.7,1.9,5.5,2.1,7.7,0.8
		c-0.3-0.7-0.5-0.1-1.9-1c-0.9-0.6-2-1.3-2.3-2.3c-0.6-1.7-0.7-2.2-0.4-4c0.2-1.3-0.1-2.5-1.2-3.4c-2.9-2.3-2.9-4.8-3.9-5.6
		c-0.9-0.8-2.2-1.1-3.4-1.3c-0.9-0.2-0.3-3.6-3.1-4.2c-0.1,0-0.2-0.5,0-0.6c1.1-0.4,2.8,1.7,3,3.6c0.1,0.7,0.7,0.5,2.4,1.2
		c2.4,0.9,1.6,1.5,2.6,3.3c1,1.7,3.5,5.3,5.8,3.4c0.7-0.5-1.6-1.5-2.3-5.1l-0.5-2.9c-0.7-3.5-5.5-5.7-8.6-6.8
		c-0.4-0.1-0.8-0.3-1.2-0.6c0.3-1,4.7,1.4,5.1,1.7c2.4,1.5,1,0.2,3.4,2c0.8,0.7,1.3,1.4,1.6,2.5c0.1,0.3,0.8,0.3,1.1,0.5
		c2.5,1.2,4.4,2.7,5.7,5.1c0.5,0.8,0.7,2.1,0,2.8l-1.3,1.1c1.2,0.8,2.1,1.4,3.4,1.9c0.6,0.2,1.8-0.2,2.2-0.6c1-1.3,0.8-3,0.3-4.4
		c-0.7-2.1-2-3.7-3.7-5.2l-1.3-1.2c-0.1-0.1-0.2-0.4-0.1-0.4c0.7,0,4.2,3.8,4.8,4.7c0.5,0.7,0.6,1.6,1,2.3c0.7,1,0.8,3,0.2,4.1
		c-0.4,0.7-0.5,1.3-0.6,2.3l-0.6-0.7c-0.6,0.1-1.7,0.5-2.4,0.2c-1.1-0.5-2.1-1.1-3-1.8c-0.1-0.1-1.3-1.4-1.1-1.6
		c0.5-0.5,1.4-0.5,1.8-1.2c0.4-0.7-0.1-1.5-0.4-2.1c-0.3-0.5-0.7-1.3-1.1-1.7c-1.4-1.3-2.2-1.7-4.1-2.3c0.1,1.5,0.4,2.7,1,4
		c0.8,1.8,2.1,2,1.8,3c-0.3,1.1-1.2,1.8-2.3,1.9l-0.1,1.8c-0.1,1.2-0.1,3.5,0.8,4.5c1.6,1.7,4,2.2,4.1,2.8c0.3,1.4-4.4,3-8,0.8
		c-3.7-2.3-2.8-3.2-4.5-3.7C147.7,117.7,145.6,114.1,145.1,111.9z M134.1,107.1l4.1,1.8c0.5,0.2,1,0.5,1.5,0.8l-0.2-1.2
		c-0.1-0.5,2.2-1.2-0.1-5.5c-0.4-0.8-0.8-1.6-1.5-2.3c-1.6-1.5-3.4-2.8-5.4-3.9l-4.2-2.3l-2.7-1.5l-2.3-1.3
		c-0.8-0.4-2.9-1.7-3.4-2.2l-2.6-2.6c-0.8-0.8-2.1-1.6-3.3-1.6c-0.8,0-1.6,0.1-2.5,0.2c0.2,0.5,0.3,0.9,0.1,1.3
		c-0.3,0.8-1.5,0.4-1.6,0.8c-0.1,0.5,1.3,2.2,1.7,2.7c1.1,1.3,2.3,2,3.8,2.6l1.3,0.6c0.4,0.1,0.9,0.5,1.3,0.5l4.4,0.9
		c0.4,0.1,1.2,0.5,1.6,0.7c1.3,1.6,2.1,4.5,1.6,6.6c-0.2,0.7-0.6,1.2-1.1,1.8l4.1,1.1c0.5,0.1,1,0.4,1.4,0.5
		C131.5,106.2,132.8,106.6,134.1,107.1z M101.2,189.1c-0.2,0,0.1,0,0.2,0l0.1-0.3c0-0.1,0.1-0.2,0.1-0.3l0.3-0.6l0.1-0.2l0.2-0.2
		l0.1-0.2l0.1-0.2l0.1-0.2l0.1-0.2l0.1-0.2c0,0,0.2-0.3,0.2-0.3l2.1-1.5l0.3-0.2c2.1-1.3,4.2-2.6,6.5-3.5l2.3-0.9l3.8-1.5
		c1.5-0.6,2.9-1.5,4.3-2.4l2.1-1.3c2.1-1.3,4.6-4.1,5.8-6.5l2.1,1.2c0.2,0.1,0.6,0.3,0.7,0.1l3-4.5l0.7-1.1l1.3-2l0.7-1.1l1.8-3
		l1.9-3.3l2.3-3.7c-2.2-0.9-4.8-2.8-6.2-4.4l-1.2-1.3c-0.7-0.7-1.2-1.5-1.7-2.4c-1.3-2.1-2.3-4.3-2.6-6.8c-0.2-1.1,3.8-5,5.2-5.4
		c-0.9-1.6-1.1-3.2-1.2-5c-0.1-1.1-0.3-2.9-0.2-4c0.2-2.6,1.3-7.8,3-10c-0.1-1-4.2-2.7-5.1-3.1c-4.7-2.1-5.9-2.3-10.8-3.5
		c-2.3-0.6-4.5-0.8-6.9-1l-5.1-0.5c-1.5-0.2-3-0.2-4.6,0l-2.1,1.7c3.5,0.2,6.7,0.3,10,0.8l5,0.8c0.5,0.1,1.2,0.5,1.6,0.6l1.9,0.4
		l2,0.4c1.9,0.4,3.8,0.6,5.6,1.3l2.4,0.8l1.7,0.6c0.3,0.1,1.3,0.7,1.5,1.2c0.2,0.6-1.7-0.5-1.4-0.4c-2.2-0.9-4.4-1.7-6.7-2.2
		l-1.7-0.4l-2.4-0.5c-3.6-0.7-3.8-1.1-8.1-1.8l-2.1-0.3l-4-0.5c-0.7-0.1-1.4-0.2-2.1-0.2l-4.5-0.1l-1.8,1.4c-1.5-0.3-2.8-1-4-1.9
		c-0.9-0.1-2,0-2.9,0.1l-4.5,0.4l-3.9,0.6c-1.2,0.2-2.2,0.2-3.4,0.4l-2.4,0.4c-3.1,0.6-6.2,0.9-9.2,2.1l-4.1,1.6
		c-0.8,0.3-1.6,0.8-2.3,1.5c0.8,1.9,1.3,3.7,1.7,5.7c0.2,1.1,0.2,2.2,0.3,3.3c0.2,2.1,0.2,4.2-0.4,6.4c-0.5,1.8,0.2,1.3,2.7,3.6
		c0.5,0.4,0.8,1.1,1.3,1.7c2.2,0.1,4.3,0.1,6.5,0.1l1.8,0l7.1,0l4.5,0l2.2,0l10.8,0l1.2,0l13.8,0l6.8,0.1l5.5,0.1l1.3-1.4
		c0.8-0.9,1.7-1.8,2.8-2.4c-1.8-4.2-1.7-9.9-0.2-14.2c0.3-1,0.9-1.8,1.4-2.6l0.3-0.4c0.1-0.1,0.6,0.1,0.5,0.2
		c-0.5,1.1-1.4,1.7-2.1,4.6c-0.7,2.9-0.9,7.3,0,10.2l0.5,1.7c0.1,0.3,0.3,0.9,0.1,1c-0.8,0.4-1.7,1-2.3,1.6l-2.1,2.2l-5.2,0l-4.5,0
		l-1.8,0l-2.1,0l-4.3,0l-12.5,0l-1.3,0l-29,0c-0.7-1.3-1.6-2.3-2.7-3.2l-1.1-0.9c-0.6-0.5-0.6-0.9-0.4-1.6c0.6-2.2,0.7-4.6,0.5-6.9
		l-0.4-3.4c-0.1-0.5-0.2-1.2-0.3-1.7l-0.9-2.8c-0.1-0.4-0.4-1.1-0.4-1.4c2.5-1.7,5.7-2.9,8.5-3.7c2.9-0.8,5.7-1.3,8.7-1.8l1.7-0.3
		l3.4-0.4l4.6-0.6l4.7-0.3c0.1,0,0.5-0.2,0.4-0.2c0-0.1-0.2-0.4-0.3-0.4c-2.6-2.1-1.6-1.5-5.1-1.5c-2.1,0-4.2,0-6.2,0.5l-2,0.4
		l-3.5,0.7c-0.6,0.1-1.4,0.4-2,0.5l-2.8,0.8l-2.6,0.7c-0.8,0.2-1.5,0.6-2.3,0.8l-1.8,0.6c-0.4,0.1-0.9,0.3-1.3,0.5l-2,0.9
		c-0.9,0.4-1.6,0.9-2.4,1.6l-0.4-0.4c0.7-0.5,1.3-1.1,1.9-1.4l2.3-1.1c3-1.4,6.1-2.3,9.3-3.2l3.7-1c0-0.1,0-0.2,0-0.2l-1.1-0.7
		c-1.1-0.6-1.5-1.8-1.5-3c-0.1-1.2,0.4-2,1.2-2.8l1.5-1.5c3.8-0.5,6.4-1.5,9.6-3.3c1.9-1.1,3.6-2.9,3.1-4.9
		c-0.7,0.3-1.3,0.4-1.6-0.1c-0.3-0.4-0.2-0.8,0.2-1.4l-1.5,0c-4.7,0.1-6.3,5-10.6,7.3L77,94c-0.8,0.4-1.6,0.8-2.4,1.4l-1.8,1.3
		l-1.4,1.1l-1.9,1.7c-0.5,0.5-1,0.8-1.5,1.3c-6.4,6.7-2.2,6.5-4.3,8.1c-1.1,0.8-2.3,1.5-3.8,1.3c-0.2,0.5-0.3,1.1-0.5,1.5l-0.8,1.8
		c-0.8,1.6-2.6,3-4.6,2.9c-0.3,0.8-0.5,1.8-1,2.5c-0.6,1-1.4,1.8-2.2,2.6c-0.5,0.5-1.2,0.8-1.8,1.1c-4.7,2.3-9,0.7-8.7-0.1
		c0.1-0.5,1.4-0.1,2.7-1.6c1.2-1.4,2.2-2.9,2.5-4.7l0.3-1.5c0.2-1.1,0.5-2.2,0.9-3.3c-1.5-0.3-2.6-1.2-2.9-2.7l1.3-0.7
		c2.2-2.9,2.6-5.3,3.3-8.7c0.1-0.6,0.5-1.1,0.5-1.8c-3.5,2.6-6,6.1-6.3,10.2c-0.2,2.7,1.5,4,0.9,4.3l-1.5,0.8
		c-1.3,0.7-2.8,0.6-4.2,0.5c-1.2,2.8-3.2,6.3-6.2,7.4c-1.3,0.5-2.8,0.4-4-0.2c-0.6-0.3-0.8-1.2-0.7-1.7c0.2-1.5,1.3-1.2,1.1-2.1
		l-1-4.7l-0.8,1.6c-0.9,1.8-1.5,4.4-2,6.4c-0.4,1.6-0.3,3.3-0.5,5c-0.1,0.8-0.1,1.5,0,2.3l0.3,1.9c0.4,2,1,3.9,2.4,5.4
		c3.2,1.5,7.8,0.6,11.1-0.6c0.5-0.2,1.1-0.8,1.5-1.2c1-0.3,2.3,2,2.8,3c1,2.4,0.3,4.2-0.9,6.4c0.4,2.6,0.7,1.8-0.1,4.4
		c-0.1,0.5-0.8,0.9-1.2,0.7c-1.6-0.6-1.9-0.8-3.8-0.6l-1.9,0.2l-2.7,0.3c3.7,2,6.6,1.3,10.4,0.2c0.7-0.2,1.3-0.1,1.8,0.5
		c0.4,0.5,0.5,1.5,0.6,2.3c2.6-0.1,5.6,2.1,5.6,4.7c0,1.3-0.3,2.5-0.4,3.9c1.6-1.2,3.1-2.7,3.3-4.8c0.1-1.1-0.6-2.4-1-3.3
		c-0.6-1.5-2.4-0.8-3-0.9c-0.5-0.1,0.9-1.2,2.1-0.7c0.6,0.2,1.2,0.8,1.5,1.5l0.9,2.5c0.7,2-1.4,4.9-3.1,6.2c-0.8,0.6-1.6,1.6-2.5,2
		c-2.1,1.1-4.4,1-6.8,1.4c2.2,0.6,4.6,0.4,6.7-0.7c0.9-0.4,1.7-1,2.5-1.6c1.8-1.2,3.2-2.9,4-4.9c0.5-1.3,0.7-2.6,0.3-4
		c-0.5-1.8-0.9-3-2.4-4.3c-0.3-0.3-1.4-0.3-1.9-0.1c-1,0.4-0.8,1.8-1.3,2.2c-0.7-1.2-0.1-2.4,1-2.9c1.5-0.7,2.9-0.4,4.3,0.5
		c0.6,0.5,1.5,0.9,1.9,1.5l1.8,2.9c2.5-1.2,4.6-3,6.3-5.2c1-1.2,1.8-2.9,2.5-4.3c1.2-2.8,1.3-3.2,2.1-6.3c-0.2-0.5-0.7-1.3-1-1.7
		l-1.4-1.3l-1.9-1.8c-0.3-0.3,0.3-1.1,0.3-1.5l0.4-3c0.2-1.5,0.1-4.5-0.1-6.1l-0.3-2.1c-0.1-1.1-0.4-2.1-0.8-3.2l-1.2-3.1
		c-0.3-0.7,0.6-0.9,2,3.7c1.2,4.1,1.3,10.8,0.2,15.1c1.2,0.9,2.4,1.9,3.5,3.1c0.5,0.5,1.1,1.1,1,1.8l-0.8,3.3
		c-0.4,1.8-1.4,3.5-2.3,5.2c-1.4,2.6-3.3,4.7-5.7,6.4l-2.3,1.6l2.1,3.4l0.7,1l2.6,4.1l3.7,5.7l1.9,3l2.3-1c0.3-0.1,0.8-0.6,1.1-0.5
		c1.3,2.1,0.9,1.8,2.5,3.8c1.5,2,4,4.6,6.2,5.9c4.2,2.4,5.7,2.1,9.2,3.7l4,1.8c0.7,0.3,1.3,0.7,1.9,1.1c1.7,1.1,3.4,2.4,4.3,4.2
		L101.2,189.1z M95.3,86.5l-2.5-0.6c0.7,2,0.1,3.8-1.3,5.3l3.1,1.2l3,1.4c0.6,0.3,1.1,0.5,1.7,0.8l2.6,1.5l2.4-1.7l3.6-2.4
		c0.9-0.6,1.8-1,2.9-1.5c-1.2-1.4-2-3-1.7-4.7l-0.4,0.1c-0.3,0.1,0.4,1.3-0.1,1.8c-0.4,0.4-1.1,0.7-1.5,0.6
		c-1.1-0.2-0.9-1.6-1.6-1.4l-1.8,0.4c0.2,0.6,0.1,1.3-0.4,1.6c-0.9,0.7-2.2,0.3-3-0.2l-0.1-1.4L98.5,87c-0.1,0.8-0.4,1.3-1.1,1.5
		c-0.7,0.3-1.3,0.2-1.8-0.2C95.2,87.9,95.2,87.2,95.3,86.5z M97.4,87.1c0-0.3-0.8-0.4-1.1-0.3c-0.2,0.1-0.4,0.7-0.3,0.9
		C96.3,87.9,97.3,87.6,97.4,87.1z M102.4,88.4c0.1-0.6,0-0.8-0.1-1.2l-1.6,0.1l0,1L102.4,88.4z M92.9,93.3c2.9,1.3,5.4,2.9,8,4.5
		c0.2,0.2,0.6,0.5,0.8,0.4c0.2,0,0.5-0.2,0.7-0.4l2.3-1.7l3.3-2.4c0.8-0.6,2.6-1.6,3.6-2c0.3-1.7-4.8,1.8-5.2,2.1l-2.7,1.8
		c-0.7,0.5-1.6,1.7-2.3,1.2c-1.4-0.9-2.7-1.8-4.3-2.5l-2.6-1.2l-3.1-1.3c-0.1-0.1-0.5-0.1-0.5,0c-0.1,0.1-0.2,0.3-0.2,0.4L92.9,93.3
		z M98.9,102.8l1.2,0.6c0.5,0.2,1.3,0.6,1.9,0.6c1.1-0.1,5.3-3.9,6.2-4.9l0.3-0.9c2.5,0.2,4.3,0.2,6.5-0.8c1.3-0.6,2.5-1.2,3.6-2.1
		l-1.6-0.7l-2.5-1.1c-0.6-0.3-1.1-0.5-1.8-1c-3.4,1.2-6.8,3.8-9.6,6.2c-0.6,0.5-1.4,0.4-2,0c-1.5-1-5.7-3.5-7.1-4.2l-3.5-1.6
		c-0.4-0.2-1.1-0.2-1.4,0.1c-1.5,0.9-2.9,1.5-4.7,2.2l0.8,1c0.2,0.3,0.8,0.7,1.2,0.9c1.9,1,2.6,1.2,4.8,1.6c2.3,0.4,2.6-0.6,3.8,0.7
		C96,100.7,97.2,102,98.9,102.8z M50.9,119.9c0.4-0.3,0.8-0.8,1-1.2l0.8-1.6l-0.1-1.2c4.1-0.8,5-2.5,6.3-6.1l-1.9-1.5
		c-0.1-0.1-0.2-0.5-0.1-0.6c0.1-0.1,0.6-0.2,0.8-0.1c0.3,0.2,0.8,0.6,1.1,0.9c1.4,0.9,3.2,0.8,4.2-0.6c-2.5-0.7-4-3.7-3.2-5.9
		c-1.5-0.5-3-1-3.6-2.5c0.2-0.2,0.7-0.5,0.9-0.5c2.2-0.5,4.2-1.4,5.7-3.2c-1.2-1.1-3.9-1-5.3-0.9c-0.6,0.1-1.2,0.3-1.8,0.5l-2,0.6
		l-0.3-2.7c-2.2,0.6-4.3,4.2-4.6,6.2c-0.4,2.8-1.7,7.3-4.1,9c-0.2,0.1-0.2,0.7,0,0.8c0.6,0.5,1.4,0.8,2.2,0.6
		c0.4-0.1,1.1-0.5,1.4-0.8c2.2-2.3,3-4,3.1-7.2c0-0.4,0.1-5.3,1-4.8l-0.1,1.5c-0.3,3.1,0.2,4.2-0.9,7.1c-1,2.8-1.7,3.6-4.2,5.3
		c-1.1,2.3-0.7,4.1-1.8,6.5c-0.9,2.1-1.9,3.7-4,5c0.5,0.2,1.3,0.3,1.9,0.3C47,122.6,48.1,122.3,50.9,119.9z M85.5,98.2l2.2,1
		c1.7,0.7,3.4,0.9,5.3,0.9c0.9,0,0.6,0.6,2,1.8l1.9,1.7c1.3,1.1,2.6,2.2,4.3,2.9c2.5-1.2,4.2-2.5,6.2-4.3c1.2-1,1.3-2.1,2.8-2.3
		c1.5-0.2,3-0.2,4.4-0.7c2.6-0.8,4.1-1.3,6.3-3.2c-0.4-0.3-1-0.5-1.4-0.5c-0.6,0.5-1.2,1.1-1.9,1.4l-2.7,1.4c-1.4,0.7-3.9,1-5.6,0.8
		l-1.1,1.1c-1.9,2-3.3,3-5.6,4.6c-0.5,0.4-1.2,0.3-1.7,0c-1.6-0.8-3.3-1.5-4.5-2.8l-1.4-1.6c-0.2-0.2-0.7-0.9-1-0.9l-1.9,0
		c-2.2,0-4-0.6-5.9-1.7c-2.5-1.4-2.4-3-3.8-1.9C82.6,96.4,85,97.9,85.5,98.2z M90.4,101.9l3.3,0c0.1,0,0.4-0.1,0.4-0.1
		c-0.2,0-0.4-1.3-2.3-1.2c-0.7,0.1-1.5-0.1-2.2-0.2c-1.8-0.4-3.4-1.1-5-2c-0.7-0.4-1.4-0.8-2-1.3l-1.5-1.1c-0.3-0.2-1.2,0.1-1.4,0.3
		L78,98c-0.8,0.7-0.7,2.7-0.2,3.4c0.6,0.9,1.8,1.3,2.6,1.6c0.2,0.1,0.7,0.4,0.9,0.4l2.2-0.4l3.2-0.6C87.8,102,89.1,101.9,90.4,101.9
		z M112.3,102.6l3.8,0.3l2.2,0.2l4.1,0.5c1,0.1,1.8-0.7,2.1-1.6c0.5-1.5,0.1-3-0.7-4.4c-0.2-0.4-0.8-1.2-1.3-1.3l-1.9,1.3
		c-0.8,0.5-1.6,0.9-2.5,1.3c-1.1,0.4-2.2,1.1-3.4,1.2l-4.9,0.7l-1.5,1.7c0.6,0,1.2,0,1.7,0L112.3,102.6z M40.8,134.7
		c-0.4-0.6-0.8-1.2-1.5-1.5c-0.5,0.3-1,1-1.4,1.1l-2.1,0.7c-0.9,0.3-1.8,0.4-2.7,0.5c-3.2,0.6-5.6,0.1-8.3-1.7c-1.5-1-2.8-2-3.9-3.5
		c-1.2-1.6-1.6-2.2-2.4-4c-1-2.1-2.1-5.5-2.2-7.8c-0.1-2-0.1-3.9,0-5.9c0-1.5,0.7-2.6,0.9-3.7c-0.4,0.6-0.6,1.1-0.8,1.8l-0.6,1.8
		c-0.4,1.1-0.5,2.2-0.6,3.4l-0.2,2.6c-0.3,3.7-0.7,7.4,0.9,11l1,2.3l0.8,1.6c0.7,1.6,1.5,3.2,2.7,4.6c0.7,0.8,1.9,2,2.8,2.6l2.2,1.5
		c3.3,2.2,8.8,2.2,12.5,0.7C40.6,141.6,42.8,138,40.8,134.7z M32.3,159.4l-1.4-0.6c-0.5-0.2-0.9-0.7-1.3-1.1l-2.1-2
		c-0.4-0.4-0.7-0.8-1.1-1.2l-1.8-1.9c-0.5-0.6-1-1.2-1.4-1.9l-1-1.8c0-0.1,0.1-0.5,0.1-0.4c0,0,0.3,0.2,0.3,0.2l1,1.7
		c1.7,2.8,6.7,7.4,10.1,8.6c1.9,0.7,4.1,0.2,5.9-0.4c2.7-0.9,5.7-1.8,8.6-1c0.3,0,0.4-0.7,0.4-1.1c0.1-1.1,0.3-2.2,0-3.2
		c-0.4-1.3-1.7-2.4-3.1-2.6c-1-0.2-1.8-0.2-2.9-0.2c0.1-0.3,0.2-0.7,0.3-1c0.3-0.6-0.1-1.9-1-1.7l-3.9,0.9c-2.8,0.6-5.6-0.3-8-1.9
		c-0.4-0.3-0.8-0.7-0.5-1c4.7,0.4,6.3-1.7,10.4,0.3c0.7-1.5,0.6-1.8,0.1-3.5c-1,0.7-3,1.7-4.1,1.8l-2.2,0.3c-0.4,0-0.9,0-1.3,0
		c-1.7,0-3.5-0.1-5.1-0.8c-0.9-0.4-2-0.8-2.7-1.4l-1.4-1.1c-1.4-1.1-2.8-2-3.9-3.7c-1.9-2.7-5.1-9.3-5.4-12.6
		c-0.1-1.7-0.2-3.4,0-5.1l0.2-1.9l0.3-3.2c-0.7,0.9-1.5,5-1.5,6.1l-0.2,3.1c-0.1,1.3-0.1,2.5-0.1,3.8l0,1.7c0,6.1,1.2,10,4.5,15.2
		c0.2,0.4,0.9,0.9,0.8,1.3c-0.2,1.5,0.1,3.6,0.7,4.9l1.1,2.5c0.2,0.4,0.4,1,0.7,1.3c1.1,1.4,2.2,2.8,3.4,4.1
		c0.7,0.7,1.6,1.4,2.4,2.1c1.1,0.9,2.2,1.5,3.5,2.1c2.2,1.1,4.4,1.7,6.8,2.1c2.1,0.3,4.1,1,6.2,0.7l1.3-0.2c1.4-0.2,4.2-0.1,6.4-1.4
		l2.6-1.6c0.5-0.3,1-0.8,1.3-1.3l0.9-1.2c0.6-0.8,1.3-1.6,1.6-2.6c0.2-0.8,0.6-1.7,0.6-2.4l-0.1-1.5c-0.1-1.6-0.7-2.9-1.5-4.2
		c-0.7-1.2-1.5-2.4-3-3l0.8,1.1c0.7,1,1.5,3.4,1.4,4.7c-0.1,3.4-2.3,6.2-5.1,8c-3.1,2.1-4.7,2.7-8.4,2.3l-2.3-0.3
		c-1-0.1-3.3-0.9-4.1-1.5l-1.6-1.2C33.2,159.8,32.8,159.6,32.3,159.4z M174.4,143.3l-1.7-0.2c-4.1-1.2-7.1-2.3-9.1-6.3
		c-0.6-1.2-0.8-2.5-1-3.9c-1.1,1.1-1.5,2.5-1.4,4c0,0.6,0,1.4,0.2,1.8c0.8,1.3,2.2,3,3.6,3.4l4,1.1
		C169.7,143.3,173.8,143.4,174.4,143.3z M179.3,149.9l-1.9,2.1c-0.7,0.8-1.4,1.8-2.2,2.4l-2,1.4c-1.2,0.9-4.1,2.5-5.5,3
		c-3.6,1.5-7.3,2.6-11.3,2.5c-1.4,0-2.8-0.3-4.1-0.7c-1.5-0.4-2.6-1.4-3.5-2.6c-1.4-1.6-2.1-4-1.4-5.8l0.7-1.8
		c-0.6,0.3-0.9,0.8-1.2,1.5c-0.6,1.9-0.6,3.1,0,5c0.6,2,1.4,3,3.1,4.4c0.5,0.4,1.1,1,1.7,1.2c4.3,2,9.6,1.7,14.1,0.5
		c1.1-0.3,2.2-0.6,3.2-1c1.5-0.7,2.9-1.4,4.2-2.3l1.2-0.8c1-0.7,1.9-1.6,2.8-2.4l1.5-1.3c0.9-0.8,1.7-1.7,2.4-2.7l1.1-1.5
		c0.3-0.4,0.6-0.8,0.8-1.2c1.5-2.4,1.4-1.9,2.2-4.7c0.2-0.8,0.8-3.8,0.6-4.6c-2.1,1.5-4.1,2.3-6.3,3c-0.2,0.1-0.7,0.3-0.9,0.4
		c-4.5,0.7-7.8,0.5-12.2-0.7l-2-0.6c-0.7-0.2-1.4,0-1.8,0.6l-0.7,1.3c1.5,0.4,1.5-0.3,3.5,0.5l1.9,0.8c1.1,0.5,2,1,3,1.7l2.1-0.4
		c0.1,0,0.5,0.2,0.5,0.3c-0.1,0.1-0.3,0.3-0.4,0.3l-2.3,0.5c-2.1,0.5-5.1,0.7-7-0.3c-1.4-0.8-1.2-0.9-1.7-2c-0.3-0.2-1,0.1-1.4,0.3
		c-1.4,0.6-2,1.8-1.6,3.3c0.3,1.3,1.8,1.3,1.1,1.7c-0.6,0.4-2-0.2-3.5,1.3c-1.3,1.3-1.8,3.8-0.5,4.6c3-0.3,4.4,0.2,7.3,1.1l0.5,0.6
		c2.4-0.4,5.3-1,7.4-2.1l1.3-0.7c0.7-0.4,1.4-0.9,2.1-1.4c0.9-0.6,1.7-1.4,2.4-2.2l1.9-2C178.8,149.9,178.9,149.3,179.3,149.9z
		 M167,147.9c0.8,0,1.5-0.1,2.5-0.3c-1.9-1.2-4.8-2.7-6.9-2.3c-0.3,0.7-0.1,1.3,0.5,1.7C164.5,147.8,165.3,148,167,147.9z
		 M165.2,159.1l-1.3,0c-3,0.1-2.3,0.6-5.8,0.3c-0.5,0-1-0.4-1.5-0.6c-2-0.9-3.2-2.6-3.5-4.8c-0.2-1.2,0.7-2.1,1.3-3.2
		c0.3-0.8-1-1.7-1.7-1.7c-0.9,0-1.6,0.2-2.3,0.4c-1,0.4-1.7,1-2.1,2c-0.5,1.3-0.8,2.8-0.1,4.1c0.7,1.4,1.6,2.9,3,3.6
		c1.7,1,3.7,1.3,5.7,1.3c1.4,0,2.8,0,4.2-0.3l2.9-0.7C164.3,159.5,164.8,159.3,165.2,159.1z M162.4,158.6l-1.2-0.6l-2.3-0.5
		c-0.8-0.2-1.6-0.1-2.4,0.2C157.7,159,160.6,158.7,162.4,158.6z M43.6,161.2c1.6-0.2,4.3-0.7,5.3-2.2c-1.3-0.3-2.5-0.5-3.8-0.5
		c-0.7,0-1.5,0.4-2.2,0.5c-3.5,0.6-3.5,1.4-7.1,1.4C38.7,161.7,40.4,161.5,43.6,161.2z"/>
	<g>
		<path class="st0" d="M102.6,67.3c-0.6,0.5-1.5,0.5-2.1,0.2c-0.2-0.1-0.6-0.7-0.6-0.9c0-0.7,1.7-1.7,2.7-0.9
			C103,66,103,67,102.6,67.3z"/>
		<ellipse class="st0" cx="105.4" cy="66.6" rx="0.9" ry="0.9"/>
		<path class="st0" d="M97.4,67.3c-0.4,0.2-1.2,0-1.4-0.3c-0.1-0.4,0.3-1.1,0.7-1.2c0.3-0.1,0.8,0.1,1,0.3
			C98,66.4,97.9,67.1,97.4,67.3z"/>
	</g>
	<g>
		<path class="st0" d="M81.1,174.1c-1.8-1.2-3.3-3.3-4.6-4.8c-0.9-1.2-1.9-2.2-2.4-3.7c-0.4-1-2.4-0.1-3.4,0.3
			c-0.9,0.3-1.1-0.1-1.5-0.7l-2.4-3.7l-2.7-4.2l-2.5-3.8c-0.1-0.1-0.1-0.6,0-0.6c0.1-0.1,0.4-0.1,0.5-0.1l3.4,0l5.8,0l3.8-0.1
			l2.5-0.1l14.5-0.1l5.3-0.1l6.3-0.1l2.3-0.1l8.7-0.1l22.6-0.1l3.2-0.1c0.2,0,0.6,0.2,0.7,0.3c0.1,0.2-0.1,0.5-0.2,0.8l-3.5,5.6
			l-2,3l-3.1,4.5c-0.2,0.3-0.6,0.5-1,0.3l-1.4-0.9c-1.5-0.9-0.6,1.6-3.9,4.3l-3.7,3c-2.2,1.8-4.7,3-7.4,3.9
			c-1.6,0.5-2.9,1.2-4.4,1.9c-2,1-3.8,2-5.7,3.1c-1.9,1.2-2.3,1.4-3.5,3.4c-1-2.3-2.8-4.1-5.2-5l-6-2.2l-1.9-0.7
			C85.8,176.7,83.5,175.6,81.1,174.1z M94.9,179.3c2.3,0.8,4.2,1.9,5.7,3.7l0.8,1.1c0.8-0.8,1.5-1.5,2.3-2c1.6-1,3.2-2,4.9-2.8
			l2.8-1.4c0.6-0.3,1.3-0.7,2-1c2-0.8,4-1.4,5.8-2.4c1.8-1,3.6-2.4,5.1-3.8l2.1-2c1.4-1.2,2.2-3.5,2.8-3.9c0.1-0.1,0.4,0,0.5,0.1
			l2.1,1.2c0.4-0.6,0.8-1.1,1.2-1.7l3-4.6l1.7-2.7l2.6-4.2c-0.9-0.1-1.7-0.1-2.6-0.1l-4.2,0l-3.5,0l-6.8,0l-9.5,0l-8.4,0.1L90,153.2
			l-2.2,0l-1.8,0l-3.4,0l-10.1,0.2l-3,0l-7.1,0.1c0.8,1.6,1.7,2.7,2.6,4.1l3,4.7c0.7,1.1,1.4,2.1,2.2,3.2c1.4-0.6,2.7-1,4.2-1.1
			c0.4,1.5,1,2.8,2,3.9l1.4,1.6c2.1,2.5,3.1,3.7,6.2,5.1l2,1c0.7,0.3,1.4,0.6,2.1,0.9l2.1,0.7L94.9,179.3z"/>
		<g>
			<path class="st0" d="M137.2,149.2l-9.5,0l-26.1,0l-1.5,0l-2.2,0l-4.9,0l-15.6,0.1l-3.3,0.1l-8.5,0.1c-0.2,0-0.7-0.4-0.6-0.5
				l1.3-1.6c0.6-0.8,1.2-1.6,1.7-2.4l1.8-3.3c0.3-0.6,0.6-1.3,0.8-1.9l0.7-1.7l0.8-1.9c0.2-0.4,1.3-0.3,1.7-0.3l2,0l10.9,0l8,0l5,0
				l10.8,0l9,0.1l2.6,0l4.5,0l1.2,0l2.5,0c0.4,0,0.9,0.1,1.1,0.6c0.4,1.6,0.8,3.1,1.4,4.7c0.1,0.4,0.5,0.8,0.7,1.2l1.1,2
				c0.8,1.4,2,2.8,3.2,4c0.1,0.1,0.2,0.4,0.1,0.5C137.6,149,137.4,149.2,137.2,149.2z M81.5,136.6l-1.1,0l0.1,12.3l1.1,0L81.5,136.6
				z M83.2,136.6h-1.1v12.3h1.1V136.6z M86.3,148.4l0-3.5l-0.1-7.6c0-0.1-0.2-0.5-0.2-0.6c-0.1-0.1-0.2,0-0.5,0l0.1,9l0,2.8
				c0,0.1,0.4,0.4,0.4,0.3C86.1,148.8,86.3,148.5,86.3,148.4z M73.1,148.4l0-2.6l-0.1-8.6c0-0.2-0.2-0.5-0.3-0.6
				c-0.1-0.1-0.2,0.3-0.2,0.5l0.1,5.6l0,5.7c0,0.2,0.2,0.4,0.3,0.4C73,148.9,73.1,148.6,73.1,148.4z M74.6,136.7l-0.9,0l0.1,12.2
				l0.9,0L74.6,136.7z M76.3,136.6l-1.1,0l0.1,12.2l1.1,0L76.3,136.6z M78.1,148.6l0-2.9l-0.1-9c-0.4,0-0.9,0-1.1,0.1l0.1,5.3
				l0.1,4.1c0,0.8,0,1.7,0.1,2.5C77.3,149,78.1,148.9,78.1,148.6z M79.8,136.6l-1.2,0l0.2,12.2l1.2,0L79.8,136.6z M84.9,136.7
				l-1.1,0l0.1,12.2l1.1,0L84.9,136.7z M87.6,148.4l-0.1-10.5c0-0.5,0-0.9-0.5-1.3c-0.1,1.1-0.1,2-0.1,3.1l0.1,8.7
				c0,0.1,0.2,0.4,0.3,0.4C87.4,149,87.6,148.6,87.6,148.4z M88.9,136.7l-0.8,0l0.2,12.2l0.8,0L88.9,136.7z M90.7,136.6l-1.2,0
				l0.1,12.2l1.2,0L90.7,136.6z M92.2,148.2l0-10.9c0-0.2-0.2-0.5-0.3-0.6c-0.1-0.1-0.6,0.1-0.6,0.2l0,6.8l0,4.6
				c0,0.2,0.3,0.5,0.5,0.5C91.9,148.8,92.2,148.5,92.2,148.2z M93.8,136.7l-1,0l0,12.1l1,0L93.8,136.7z M95.4,143.2l-0.1-6.2
				c0-0.2-0.4-0.5-0.6-0.4c-0.1,0-0.3,0.3-0.3,0.4l0,11.1c0,0.2,0.3,0.5,0.4,0.6c0.1,0,0.4-0.2,0.4-0.4L95.4,143.2z M97,136.7
				l-0.9,0l0,12l0.9,0L97,136.7z M98.6,148.4l0-9.2c0-0.8-0.1-1.6-0.2-2.4l-0.8,0l0,2.8l0.1,8.6c0,0.2,0.2,0.5,0.3,0.6
				C98.1,148.8,98.6,148.6,98.6,148.4z M100.1,136.7l-0.9,0l0,12l0.9,0L100.1,136.7z M101.8,136.7l-1,0l0.1,11.9l1,0L101.8,136.7z
				 M103.2,148.2c0-1-0.1-1.8,0-2.8l0-3.7l-0.1-4.4c0-0.2-0.2-0.5-0.3-0.6c-0.1-0.1-0.5,0.2-0.5,0.4l0,6.7l0,2.1l0,2.7
				c0,0.1,0.5,0.3,0.6,0.2C103.1,148.6,103.2,148.3,103.2,148.2z M104.2,140.4c0.3-0.4,0.6-0.8,0.6-1.1l-0.1-2.2
				c0-0.2-0.3-0.4-0.4-0.5c-0.1,0-0.5,0.3-0.5,0.4l0,11.1c0,0.2,0.3,0.6,0.4,0.6c0.1,0,0.5-0.3,0.5-0.5l0-7.3L104.2,140.4z
				 M106.5,136.7l-1.1,0l0,12l1.1,0L106.5,136.7z M108,148l0-10.8c0-0.2-0.2-0.5-0.3-0.6c-0.1-0.1-0.5,0.2-0.5,0.4l0,11
				c0,0.4,0.3,0.6,0.5,0.6C107.8,148.6,108,148.3,108,148z M109.6,136.6l-1,0l0.1,12l1,0L109.6,136.6z M111.2,136.6l-1.1,0l0,12
				l1.1,0L111.2,136.6z M112.6,148l0-10.9c0-0.2-0.3-0.5-0.4-0.5c-0.1,0-0.3,0.3-0.3,0.4l0,4.6l0.1,6.9
				C112.3,148.6,112.6,148.4,112.6,148z M113.2,136.7l-0.1,11.9l1.4,0l0.1-11.9L113.2,136.7z M116,147.6l0-10.6
				c0-0.2-0.6-0.3-0.8-0.3l0,11.8c0.2,0.1,0.7,0.1,0.8-0.1C116.1,148.2,116,148,116,147.6z M117.9,148.4l0-11.1
				c0-0.2-0.3-0.6-0.4-0.6c-0.2-0.1-0.6,0.2-0.6,0.5l0,11.3C117.1,148.6,117.5,148.6,117.9,148.4z M119.2,136.7l-0.9,0l0.1,11.9
				l0.9,0L119.2,136.7z M121,136.7l-1.1,0l0,11.8l1.1,0L121,136.7z M127.2,136.8l-1,0l0.1,11.7l1,0L127.2,136.8z M122.6,148
				l-0.1-10.6c0-0.2-0.2-0.5-0.2-0.6c-0.1-0.1-0.7,0.1-0.7,0.3l0,10.9c0,0.4,0.3,0.6,0.5,0.6C122.3,148.6,122.6,148.3,122.6,148z
				 M124,136.9l-0.9,0l0.1,11.7l0.9,0L124,136.9z M125.6,136.8h-1v11.7h1V136.8z M128.7,148.1l0-3.5l0-4.3l0-3.1
				c0-0.2-0.5-0.5-0.6-0.4c-0.1,0.1-0.3,0.4-0.3,0.6l0,5.4l0,3.5l0.1,1.8c0,0.2,0.3,0.5,0.5,0.5
				C128.5,148.6,128.7,148.3,128.7,148.1z M130.2,136.9l-0.9,0l0,11.7l0.9,0L130.2,136.9z M70.9,148.3c0,0.2,0.2,0.6,0.3,0.6
				c0.1,0.1,0.6-0.1,0.6-0.3l0-10.3c-0.2,0.6-0.8,1.5-0.8,2.1L70.9,148.3z M131.7,148l0-5.8c0-0.5-0.1-1.3-0.2-1.8l-0.7-2.1l0,3.6
				l0.1,2.6l0,3.5c0,0.2,0.3,0.6,0.5,0.6C131.5,148.5,131.7,148.1,131.7,148z M70.2,148.6l0-2.2c0-1.3,0-2.5-0.1-3.9
				c-0.6,0.6-0.7,1.2-0.7,2l0,4.1c0,0.2,0.3,0.5,0.4,0.5C70,149,70.2,148.7,70.2,148.6z M133.3,148.2l0.2-3.9c-0.3-0.6-0.5-1-1-1.6
				c-0.1,0.5-0.1,0.8-0.1,1.3l0,4c0,0.2,0.2,0.5,0.3,0.6C132.8,148.6,133.3,148.4,133.3,148.2z M68.8,148.2l-0.1-3.1
				c-1.1,0.8-1,3.6-0.6,3.8c0.1,0.1,0.6,0.1,0.6,0C68.7,148.8,68.8,148.4,68.8,148.2z M135,148.5c0-2.1,0.1-1.7-1-3.2l0,1.1l0,2
				L135,148.5z"/>
			
				<rect x="61.6" y="150.6" transform="matrix(1 -8.669510e-03 8.669510e-03 1 -1.3063 0.8833)" class="st0" width="79.3" height="0.9"/>
			<g>
				<path class="st0" d="M121,126.6c-0.8,0.1-1.2,1.3-2.6,1.2l-0.2-1.9c0-0.4-0.8-0.7-1.2-0.9c-1.5-0.7-1.1-2.3-1.2-3.4l-2-1.4
					l1.5-1.1c0.8-0.6,0.3-2.2,2.6-3.3l1.3-0.6l-0.1,0.8c-0.1,0.3-0.1,0.4,0,0.1l0.8-0.9l-0.6-0.6c-0.2-0.2-0.2-0.9,0-1.3
					c0.3,0,0.8,0.5,0.9,0.8c0.6,1.7,2-0.2,4,1l1.8,1.1l1.4-0.5c0.1,0,0.4,0.2,0.4,0.4c-0.4,2.7,0.8,3.6-0.2,5.8l-0.6,1.3
					c-0.8,1.7,0.2,1.8-0.3,2.3c-0.5,0.6-0.7-0.3-2.6,0.6C123.2,126.5,122.1,126.5,121,126.6z M125.7,121.8c0.2-0.5,0.3-0.7,0.7-1.1
					c0,0.9-0.3,1.4-0.5,2.2c1-0.9,1.3-2.3,0.9-3.6c-0.2-0.6-0.2-1.2-0.3-2l-0.4,1.1c0.6,0.6,0.8,1.5,0.1,2.1l-0.1-1.2
					c0-0.2-0.4-0.6-0.6-0.6c-0.5,0-0.1,0.2-1,0.6c-0.1,0-0.2-0.1-0.2-0.2l0.5-0.7l-0.7-1.4c-1-0.7-2.5-0.7-3.4,0.1l-0.2,1.1
					c-0.5-0.4-0.8-0.8-1.1-0.9c-0.4-0.2-1.1,0-1.4,0.2c-0.7,0.5-1,1.3-1.1,2.1l1.3,0.8l-1.1,0.9c-0.4,0.5-0.3,1.7,0.1,2.2
					c0.3,0.4,1,0.5,1.5,0.5c1.1,0,1.2-1,1.4-0.7l0.2,0.4c0.1,0.3,0.5,1,0.8,1.1c0.9,0.4,2.1,0,2.8-0.7l0.4-0.3
					c0.1-0.1,0-0.3-0.1-0.4l-0.1-0.5C123.9,122.5,125.1,123.3,125.7,121.8z"/>
				<path class="st0" d="M120.5,122c-1,0.2-0.8,0.6-1.7,0.8c-0.1,0-0.1-0.5-0.1-0.5l0.9-0.8c0.3-0.3,0.6-0.8,0.5-1.2
					c-0.2-0.8-1.8-1.4-0.9-1.7c0.6-0.2,1.4,1.4,2.4,0.7c0.6-0.4,0.3-1.2,1.1-1.5c0.6-0.2-0.6,1.7-0.1,2.6l1.5,0.1
					c0.2,0,0.4,0.5,0.3,0.6c-0.9,0.6-0.9,0.2-1.6,0.7c-0.7,0.5,0.1,2-0.6,2.1C121.3,123.7,122.2,121.6,120.5,122z M122,121.6
					c0.2-0.3,0.1-1-0.2-1.4c-0.2-0.2-0.9-0.1-1,0.1c-0.2,0.2-0.3,0.6-0.3,0.8L122,121.6z"/>
			</g>
			<g>
				<path class="st0" d="M82,126.9l-1.6,0.7l-0.2-1.1c0.3,0,0.7,0.1,0.8-0.1l0.4-0.7l-1.1,0.1c-0.7-1-2.4-1.7-2.7-3.3
					c-0.2-1.5-0.7-0.5-2.3-2.2l1.8-1c1.4-0.8-0.3-3.5,3.6-4.1c0.3-0.3,0.6-1,0.6-1.4l0-0.4c0.1-0.6,1.8,0.7,2.1,1.4
					c2.1,0.2,2.7-0.1,4.3,1.9l1-0.1c0.1,0,0.5,0.1,0.6,0.3c0.2,0.5-0.7,1.4-0.4,1.9c0.6,1.3,0.6,2.8,0,4.1c-0.6,1.2-0.2,2.6-0.8,2.6
					l-0.9,0l-1.4,1.3C84.7,127.5,82.7,126.6,82,126.9z M85.6,122.5c0-0.1,0.2-0.1,0.3-0.1l0.6,0.3c1-0.2,1.4-1,1.4-2
					c0-0.7-0.3-1.6-1.1-1.6l-0.9,0.3l0.4-1.1l0.6,0.1c-1-0.8-0.4-1.8-1.5-2.1c-0.7-0.2-1.9-0.2-2.4,0.3c-0.2,0.2-0.5,0.9-0.7,1
					c-0.6-0.5-0.9-0.8-1.5-0.9c-0.4-0.1-1.1,0.2-1.4,0.5c-0.6,0.7-0.7,1.7-0.6,2.4l0.9,0.4c-0.5,0.7-0.8,1.2-0.8,1.8
					c0,1.2,1.2,2.3,1.8,2.2c0.3,0,0.6-0.4,0.9-0.7c1,1.4,1.4,2.4,3.1,1.9c0.7-0.2,1.2-1.3,1.3-1.7C86.2,123.2,85.6,123.3,85.6,122.5
					z M88.2,121.6c0.5-0.6,0.4-1.3,0.1-2l-0.5-1c-0.1-0.3,0.3-1,0.5-1.2c0.1-0.1-0.4-0.3-0.4-0.2l-0.1,0.3c-0.6,1.5,0.3,1.4,0.6,3.2
					L88.2,121.6z"/>
				<path class="st0" d="M83.7,122.2c-1-1.3-2.2,1.4-2.7,0.5l0.9-1.1c0.2-0.3,0.3-1.2,0.1-1.6l-0.7-1.3c0-0.1-0.1-0.4-0.1-0.4
					c0-0.1,0.4-0.2,0.5-0.1l0.8,1.4c1.5-0.2,0.8-2.1,1.8-2l0,1.4c0,0.3,0.2,0.8,0.4,0.9c0.8,0.5,0.8-0.1,1.5,0.4
					c0.1,0.1-0.3,0.5-0.4,0.5l-1.1,0c-0.9,1.2,0.2,2-0.2,2.6c-0.1,0.1-0.4,0.1-0.5,0C84,123.2,83.9,122.5,83.7,122.2z M83.4,121.2
					c0.3,0,0.8-0.4,0.8-0.6c0-0.2-0.3-0.7-0.5-0.6c-0.3,0.1-0.8,0.3-1.1,0.5c-0.1,0.1-0.1,0.7,0,0.7L83.4,121.2z"/>
			</g>
		</g>
	</g>
	<path class="st0" d="M175.8,116.5c0.9,0.4,1.3,1.5,0.7,2.3c-1,1.4-3.5,1.1-4.8,0.4c-1-0.6-1.9-1.4-2.7-2.2c-0.1-0.1-1.3-2-0.7-2.4
		l0.7,1.6c0.3,0.6,1.1,1.2,1.6,1.6c1.3,1.1,4.5,2,5.3,0.3c0.3-0.6-0.9-0.5-1.4-2c-0.5-1.7,1.1-1.4,1.1-3.2c0-2.6,0-3.8-1.6-6
		c-0.9-1.2-1.7-2.2-2.8-3.2l-2.8-2.4c-2.5-2.2-6.6-4.7-9.9-5.5l-3.3-0.8l-1.5-0.4c2-0.6,8,1.7,9.9,2.7c1.1,0.6,2.2,1.1,3.2,1.9
		l1.4,1.2c0.5,0.4,1.1,0.8,1.6,1.2l2,1.7c1.1,0.9,1.9,2.1,2.8,3.2c0.5,0.6,0.9,1.1,1.2,1.8c0.8,1.9,0.6,1.5,0.9,3.5
		c0.9,0.3,1.4,0.9,2,1.6c1.7,2.4,2.7,5.1,2.6,8.1c0,2.4-0.4,5.8-1.2,7.8c0,0.1-0.4,0.2-0.4,0.2l0-0.3c0.1-0.3,0.4-0.9,0.5-1.2
		c0.3-1.9,0.5-4,0.7-5.9c0.2-2.9-1.2-8.2-4.1-9.5c0.3,2.5-1.2,2.8-1.3,3.5C175.4,116.1,175.7,116.4,175.8,116.5z"/>
</g>
</svg>
